<svg width="164" height="170" viewBox="0 0 164 170" fill="none" xmlns="http://www.w3.org/2000/svg">
<path d="M30.249 144.505L18.7383 10.625H145.264L133.738 144.484L81.9244 159.375L30.249 144.505Z" fill="#1572B6"/>
<path d="M82 147.996L123.871 135.963L133.721 21.5742H82V147.996Z" fill="#33A9DC"/>
<path d="M82 70.0773H102.961L104.406 53.2632H82V36.8423H121.719L121.34 41.2463L117.45 86.4982H82V70.0773Z" fill="white"/>
<path d="M82.0988 112.721L82.0271 112.742L64.3868 107.802L63.2593 94.7065H47.3564L49.5756 120.488L82.0219 129.827L82.0988 129.806V112.721Z" fill="#EBEBEB"/>
<path d="M101.612 85.8018L99.7059 107.79L82.04 112.731V129.816L114.512 120.487L114.753 117.714L117.505 85.8018H101.612Z" fill="white"/>
<path d="M82.0549 36.8423V53.2632H43.7917L43.4739 49.571L42.7513 41.2463L42.3721 36.8423H82.0549Z" fill="#EBEBEB"/>
<path d="M82.0004 70.0767V86.4976H64.5805L64.2628 82.8054L63.5453 74.4807L63.166 70.0767H82.0004Z" fill="#EBEBEB"/>
</svg>
