<svg width="171" height="170" viewBox="0 0 171 170" fill="none" xmlns="http://www.w3.org/2000/svg">
<path d="M114 113.333C129.74 113.333 142.5 100.648 142.5 84.9998C142.5 69.3518 129.74 56.6665 114 56.6665C98.2599 56.6665 85.5 69.3518 85.5 84.9998C85.5 100.648 98.2599 113.333 114 113.333Z" fill="#19BCFE"/>
<path fill-rule="evenodd" clip-rule="evenodd" d="M57 170C64.5587 170 71.8078 167.015 77.1525 161.702C82.4973 156.388 85.5 149.181 85.5 141.667V113.333H57C49.4413 113.333 42.1922 116.319 36.8475 121.632C31.5027 126.946 28.5 134.152 28.5 141.667C28.5 149.181 31.5027 156.388 36.8475 161.702C42.1922 167.015 49.4413 170 57 170Z" fill="#09CF83"/>
<path fill-rule="evenodd" clip-rule="evenodd" d="M57 113.333H85.5V56.6665H57C49.4413 56.6665 42.1922 59.6516 36.8475 64.9651C31.5027 70.2787 28.5 77.4854 28.5 84.9998C28.5 92.5143 31.5027 99.721 36.8475 105.035C42.1922 110.348 49.4413 113.333 57 113.333Z" fill="#A259FF"/>
<path fill-rule="evenodd" clip-rule="evenodd" d="M57 56.6667H85.5V0H57C49.4413 0 42.1922 2.98511 36.8475 8.29864C31.5027 13.6122 28.5 20.8189 28.5 28.3333C28.5 35.8478 31.5027 43.0545 36.8475 48.368C42.1922 53.6816 49.4413 56.6667 57 56.6667Z" fill="#F24E1E"/>
<path fill-rule="evenodd" clip-rule="evenodd" d="M114 56.6667H85.5V0H114C121.559 0 128.808 2.98511 134.153 8.29864C139.497 13.6122 142.5 20.8189 142.5 28.3333C142.5 35.8478 139.497 43.0545 134.153 48.368C128.808 53.6816 121.559 56.6667 114 56.6667Z" fill="#FF7262"/>
</svg>
