<svg width="37" height="37" viewBox="0 0 37 37" fill="none" xmlns="http://www.w3.org/2000/svg">
<path d="M8.96095 12.017V24.9828C7.63538 25.2683 6.46227 26.034 5.66746 27.1326C4.87265 28.2312 4.51233 29.585 4.65587 30.9333C4.79941 32.2816 5.43666 33.5292 6.44494 34.4358C7.45322 35.3425 8.76124 35.8441 10.1172 35.8441C11.4732 35.8441 12.7812 35.3425 13.7895 34.4358C14.7977 33.5292 15.435 32.2816 15.5785 30.9333C15.7221 29.585 15.3617 28.2312 14.5669 27.1326C13.7721 26.034 12.599 25.2683 11.2735 24.9828V20.3788H22.2578C23.7906 20.3771 25.26 19.7674 26.3439 18.6836C27.4277 17.5998 28.0373 16.1303 28.0391 14.5976V11.9462C29.3467 11.5891 30.476 10.761 31.2097 9.62127C31.9433 8.48151 32.2295 7.11065 32.0131 5.77256C31.7967 4.43447 31.093 3.2237 30.0374 2.37331C28.9819 1.52292 27.6491 1.093 26.2956 1.1663C24.9421 1.2396 23.6636 1.81094 22.7061 2.77035C21.7485 3.72976 21.1797 5.00944 21.1091 6.36308C21.0384 7.71672 21.471 9.04865 22.3234 10.1025C23.1759 11.1564 24.3881 11.8577 25.7266 12.0715V14.5976C25.7255 15.5172 25.3597 16.3989 24.7094 17.0492C24.0592 17.6995 23.1775 18.0653 22.2578 18.0663H11.2735V12.017C12.599 11.7316 13.7721 10.9658 14.5669 9.86726C15.3617 8.76867 15.7221 7.4149 15.5785 6.06656C15.435 4.71822 14.7977 3.47064 13.7895 2.564C12.7812 1.65736 11.4732 1.15576 10.1172 1.15576C8.76124 1.15576 7.45322 1.65736 6.44494 2.564C5.43666 3.47064 4.79941 4.71822 4.65587 6.06656C4.51233 7.4149 4.87265 8.76867 5.66746 9.86726C6.46227 10.9658 7.63538 11.7316 8.96095 12.017ZM23.4141 6.64836C23.4141 6.01948 23.6006 5.40472 23.95 4.88182C24.2993 4.35892 24.7959 3.95138 25.3769 3.71071C25.958 3.47005 26.5973 3.40708 27.2141 3.52977C27.8309 3.65246 28.3975 3.9553 28.8421 4.39998C29.2868 4.84467 29.5897 5.41124 29.7124 6.02803C29.835 6.64483 29.7721 7.28416 29.5314 7.86517C29.2907 8.44619 28.8832 8.94279 28.3603 9.29217C27.8374 9.64156 27.2226 9.82805 26.5938 9.82805C25.7507 9.82711 24.9425 9.49181 24.3464 8.8957C23.7503 8.2996 23.415 7.49138 23.4141 6.64836ZM13.2969 30.3515C13.2969 30.9804 13.1104 31.5951 12.761 32.118C12.4116 32.6409 11.915 33.0485 11.334 33.2891C10.753 33.5298 10.1137 33.5928 9.49687 33.4701C8.88008 33.3474 8.31351 33.0446 7.86882 32.5999C7.42413 32.1552 7.1213 31.5886 6.99861 30.9718C6.87592 30.355 6.93889 29.7157 7.17955 29.1347C7.42022 28.5537 7.82776 28.0571 8.35066 27.7077C8.87356 27.3583 9.48832 27.1718 10.1172 27.1718C10.9602 27.1727 11.7684 27.508 12.3645 28.1041C12.9606 28.7002 13.296 29.5085 13.2969 30.3515ZM10.1172 3.46867C10.7461 3.46867 11.3608 3.65516 11.8837 4.00455C12.4066 4.35394 12.8142 4.85054 13.0548 5.43155C13.2955 6.01256 13.3585 6.65189 13.2358 7.26869C13.1131 7.88549 12.8103 8.45205 12.3656 8.89674C11.9209 9.34143 11.3543 9.64426 10.7375 9.76695C10.1207 9.88964 9.4814 9.82667 8.90039 9.58601C8.31937 9.34535 7.82278 8.9378 7.47339 8.4149C7.124 7.892 6.93751 7.27724 6.93751 6.64836C6.93845 5.80534 7.27375 4.99712 7.86986 4.40102C8.46596 3.80491 9.27418 3.46961 10.1172 3.46867Z" fill="#FFFECB"/>
</svg>
