<svg width="158" height="170" viewBox="0 0 158 170" fill="none" xmlns="http://www.w3.org/2000/svg">
<g clip-path="url(#clip0)">
<path d="M155.02 77.426L86.0359 3.20642C82.0656 -1.06815 75.6221 -1.06815 71.6468 3.20642L57.3219 18.6193L75.4938 38.1713C79.7166 36.636 84.559 37.6659 87.9251 41.2877C91.3073 44.9328 92.2578 50.1875 90.7963 54.7456L108.309 73.5891C112.546 72.0186 117.435 73.0346 120.819 76.6816C125.548 81.7683 125.548 90.0127 120.819 95.1027C116.088 100.193 108.426 100.193 103.692 95.1027C100.135 91.2711 99.2561 85.6498 101.057 80.9343L84.725 63.3618L84.7232 109.605C85.9071 110.235 86.9884 111.067 87.9251 112.069C92.6547 117.156 92.6547 125.401 87.9251 130.495C83.1944 135.583 75.5283 135.583 70.8044 130.495C66.0749 125.401 66.0749 117.156 70.8044 112.07C71.9378 110.849 73.2847 109.883 74.7673 109.227V62.5524C73.2826 61.9002 71.9348 60.9334 70.8044 59.7095C67.221 55.8593 66.3594 50.2021 68.1955 45.468L50.2823 26.1923L2.98102 77.0827C-0.993672 81.3613 -0.993672 88.2947 2.98102 92.57L71.9665 166.791C75.9381 171.066 82.3803 171.066 86.3569 166.791L155.02 92.9146C158.993 88.6381 158.993 81.7006 155.02 77.426" fill="#DE4C36"/>
</g>
<defs>
<clipPath id="clip0">
<rect width="158" height="170" fill="white"/>
</clipPath>
</defs>
</svg>
