<svg width="40" height="40" viewBox="0 0 40 40" fill="none" xmlns="http://www.w3.org/2000/svg">
<path fill-rule="evenodd" clip-rule="evenodd" d="M1.66699 4.73033C1.66699 3.91788 1.98974 3.13871 2.56422 2.56423C3.13871 1.98974 3.91788 1.667 4.73033 1.667H35.267C35.6696 1.66634 36.0684 1.7451 36.4406 1.89877C36.8127 2.05245 37.1509 2.27801 37.4357 2.56256C37.7206 2.8471 37.9465 3.18504 38.1006 3.55701C38.2547 3.92899 38.3339 4.32771 38.3336 4.73033V35.267C38.3341 35.6697 38.2551 36.0685 38.1013 36.4407C37.9474 36.8129 37.7217 37.151 37.437 37.4359C37.1523 37.7207 36.8143 37.9466 36.4422 38.1007C36.0701 38.2547 35.6714 38.3339 35.2687 38.3337H4.73033C4.3279 38.3337 3.92942 38.2544 3.55765 38.1003C3.18588 37.9463 2.84811 37.7205 2.56363 37.4359C2.27915 37.1512 2.05355 36.8133 1.8997 36.4415C1.74585 36.0696 1.66677 35.6711 1.66699 35.2687V4.73033ZM16.1803 15.647H21.1453V18.1403C21.862 16.707 23.6953 15.417 26.4503 15.417C31.732 15.417 32.9837 18.272 32.9837 23.5103V33.2137H27.6387V24.7037C27.6387 21.7203 26.922 20.037 25.102 20.037C22.577 20.037 21.527 21.852 21.527 24.7037V33.2137H16.1803V15.647ZM7.01366 32.9853H12.3603V15.417H7.01366V32.9837V32.9853ZM13.1253 9.687C13.1354 10.1448 13.0539 10.6 12.8857 11.0259C12.7175 11.4517 12.4659 11.8397 12.1457 12.1671C11.8255 12.4944 11.4432 12.7545 11.0211 12.932C10.599 13.1096 10.1457 13.201 9.68782 13.201C9.22993 13.201 8.77664 13.1096 8.35457 12.932C7.93249 12.7545 7.55014 12.4944 7.22994 12.1671C6.90974 11.8397 6.65815 11.4517 6.48993 11.0259C6.3217 10.6 6.24024 10.1448 6.25032 9.687C6.27011 8.78842 6.64097 7.93332 7.28347 7.30481C7.92597 6.6763 8.78903 6.32436 9.68782 6.32436C10.5866 6.32436 11.4497 6.6763 12.0922 7.30481C12.7347 7.93332 13.1055 8.78842 13.1253 9.687Z" fill="#FFC700"/>
</svg>
