<svg width="170" height="170" viewBox="0 0 170 170" fill="none" xmlns="http://www.w3.org/2000/svg">
<path d="M84.9996 159.375C82.9929 159.376 81.0214 158.848 79.2834 157.845L61.0934 147.077C58.3787 145.558 59.7015 145.021 60.5993 144.708C63.4865 143.816 66.251 142.566 68.8284 140.989C69.0441 140.889 69.2818 140.846 69.5188 140.864C69.7559 140.881 69.9845 140.959 70.1831 141.09L84.1603 149.393C84.4205 149.531 84.7105 149.603 85.005 149.603C85.2994 149.603 85.5894 149.531 85.8496 149.393L140.356 117.933C140.611 117.78 140.822 117.563 140.968 117.304C141.114 117.045 141.191 116.753 141.19 116.456V53.5238C141.19 53.2218 141.112 52.9248 140.965 52.6614C140.817 52.3981 140.603 52.1773 140.345 52.0204L85.839 20.5863C85.582 20.4416 85.292 20.3655 84.997 20.3655C84.702 20.3655 84.412 20.4416 84.1549 20.5863L29.6806 52.031C29.4207 52.1847 29.205 52.4028 29.0542 52.6644C28.9034 52.9259 28.8227 53.2219 28.82 53.5238V116.429C28.8207 116.726 28.9003 117.017 29.0506 117.273C29.2009 117.528 29.4165 117.74 29.6753 117.885L44.6246 126.512C52.7262 130.56 57.6881 125.79 57.6881 120.998V58.8894C57.6881 58.4667 57.856 58.0614 58.1549 57.7625C58.4538 57.4636 58.8591 57.2957 59.2818 57.2957H66.1881C66.6108 57.2957 67.0161 57.4636 67.315 57.7625C67.6139 58.0614 67.7818 58.4667 67.7818 58.8894V121.003C67.7818 131.814 61.8956 138.003 51.6425 138.003C47.2192 138.08 42.8652 136.897 39.089 134.593L24.7612 126.374C23.0218 125.361 21.5786 123.91 20.5755 122.165C19.5725 120.42 19.0447 118.442 19.045 116.429V53.5238C19.0398 51.5079 19.5653 49.5261 20.5687 47.7776C21.5721 46.0291 23.018 44.5755 24.7612 43.5629L79.2728 12.0916C81.0287 11.131 82.9981 10.6274 84.9996 10.6274C87.0012 10.6274 88.9706 11.131 90.7265 12.0916L145.233 43.5629C146.972 44.5738 148.416 46.0232 149.419 47.7664C150.423 49.5096 150.953 51.4856 150.954 53.4972V116.429C150.951 118.442 150.422 120.419 149.418 122.164C148.414 123.908 146.971 125.36 145.233 126.374L90.7265 157.845C88.9853 158.85 87.0099 159.378 84.9996 159.375Z" fill="#83CD29"/>
<path d="M74.6602 95.376C74.6602 94.9533 74.8281 94.5479 75.127 94.249C75.4258 93.9502 75.8312 93.7822 76.2539 93.7822H83.3036C83.6803 93.7835 84.0443 93.9181 84.3312 94.1622C84.6181 94.4062 84.8093 94.7441 84.8708 95.1157C85.9333 102.293 89.1208 105.911 103.534 105.911C115.014 105.911 119.907 103.313 119.907 97.2194C119.907 93.7079 118.52 91.0994 100.675 89.3516C85.758 87.8747 76.5355 84.5704 76.5355 72.6491C76.5355 61.6522 85.8058 55.0913 101.345 55.0913C118.807 55.0913 127.45 61.1529 128.545 74.1579C128.562 74.375 128.534 74.5932 128.463 74.7991C128.392 75.005 128.279 75.1942 128.133 75.355C127.986 75.5158 127.808 75.6448 127.609 75.734C127.41 75.8232 127.195 75.8708 126.978 75.8738H119.88C119.524 75.8688 119.18 75.7447 118.903 75.5214C118.625 75.298 118.431 74.9881 118.35 74.6413C116.655 67.0922 112.506 64.6804 101.35 64.6804C88.8127 64.6804 87.357 69.0472 87.357 72.3197C87.357 76.2829 89.0783 77.441 106.004 79.6776C122.754 81.8929 130.712 85.0273 130.712 96.7998C130.712 108.679 120.81 115.478 103.539 115.478C79.6592 115.51 74.6602 104.561 74.6602 95.376Z" fill="#83CD29"/>
</svg>
