<svg width="164" height="169" viewBox="0 0 164 169" fill="none" xmlns="http://www.w3.org/2000/svg">
<path d="M81.3055 0.0478516C39.7724 0.0478516 42.3657 18.6809 42.3657 18.6809L42.4118 37.9854H82.046V43.7811H26.6697C26.6697 43.7811 0.0927734 40.6629 0.0927734 84.0163C0.0927734 127.371 23.2898 125.834 23.2898 125.834H37.1337V105.715C37.1337 105.715 36.3874 81.7173 59.9605 81.7173H99.2705C99.2705 81.7173 121.356 82.0864 121.356 59.6353V22.5136C121.356 22.5136 124.71 0.0478516 81.3055 0.0478516ZM59.4512 13.0297C60.3877 13.0288 61.3153 13.219 62.1808 13.5894C63.0462 13.9598 63.8326 14.5031 64.4948 15.1882C65.1571 15.8734 65.6823 16.6869 66.0403 17.5822C66.3983 18.4776 66.5822 19.4371 66.5813 20.4061C66.5822 21.375 66.3983 22.3346 66.0403 23.2299C65.6823 24.1252 65.1571 24.9387 64.4948 25.6239C63.8326 26.309 63.0462 26.8523 62.1808 27.2227C61.3153 27.5931 60.3877 27.7833 59.4512 27.7824C58.5146 27.7833 57.587 27.5931 56.7216 27.2227C55.8561 26.8523 55.0698 26.309 54.4075 25.6239C53.7452 24.9387 53.2201 24.1252 52.862 23.2299C52.504 22.3346 52.3202 21.375 52.321 20.4061C52.3202 19.4371 52.504 18.4776 52.862 17.5822C53.2201 16.6869 53.7452 15.8734 54.4075 15.1882C55.0698 14.5031 55.8561 13.9598 56.7216 13.5894C57.587 13.219 58.5146 13.0288 59.4512 13.0297Z" fill="url(#paint0_linear)"/>
<path d="M82.4844 168.421C124.017 168.421 121.424 149.788 121.424 149.788L121.378 130.484H81.7432V124.688H137.119C137.119 124.688 163.696 127.807 163.696 84.4517C163.696 41.0976 140.499 42.6352 140.499 42.6352H126.655V62.7528C126.655 62.7528 127.402 86.7508 103.829 86.7508H64.5187C64.5187 86.7508 42.4331 86.3816 42.4331 108.833V145.956C42.4331 145.956 39.0795 168.421 82.4837 168.421H82.4844ZM104.339 155.44C103.402 155.441 102.475 155.251 101.609 154.881C100.744 154.51 99.9572 153.967 99.295 153.282C98.6327 152.597 98.1075 151.783 97.7495 150.888C97.3915 149.992 97.2076 149.033 97.2085 148.064C97.2076 147.095 97.3913 146.135 97.7493 145.24C98.1073 144.345 98.6325 143.531 99.2948 142.846C99.957 142.161 100.743 141.617 101.609 141.247C102.474 140.876 103.402 140.686 104.339 140.687C105.275 140.686 106.203 140.876 107.068 141.247C107.934 141.617 108.72 142.16 109.382 142.846C110.045 143.531 110.57 144.344 110.928 145.239C111.286 146.135 111.47 147.094 111.469 148.063C111.47 149.032 111.286 149.992 110.928 150.887C110.57 151.782 110.045 152.596 109.382 153.281C108.72 153.966 107.934 154.51 107.068 154.88C106.203 155.25 105.275 155.441 104.339 155.44V155.44Z" fill="url(#paint1_linear)"/>
<defs>
<linearGradient id="paint0_linear" x1="15.8151" y1="15.192" x2="99.615" y2="95.3869" gradientUnits="userSpaceOnUse">
<stop stop-color="#387EB8"/>
<stop offset="1" stop-color="#366994"/>
</linearGradient>
<linearGradient id="paint1_linear" x1="65.5798" y1="68.5152" x2="155.431" y2="150.619" gradientUnits="userSpaceOnUse">
<stop stop-color="#FFE052"/>
<stop offset="1" stop-color="#FFC331"/>
</linearGradient>
</defs>
</svg>
