<svg width="158" height="162" viewBox="0 0 158 162" fill="none" xmlns="http://www.w3.org/2000/svg">
<g clip-path="url(#clip0)">
<path d="M109.477 112.692C115.308 112.042 119.731 106.635 119.53 100.146C119.329 93.6572 114.302 88.4659 108.271 88.4659H107.869C101.635 88.6824 96.8102 94.3059 97.0114 101.011C97.2126 104.256 98.4186 107.067 100.228 109.014C93.3922 123.506 82.937 134.105 67.2543 142.973C56.5979 149.029 45.5398 151.192 34.4816 149.679C25.4337 148.381 18.3965 144.055 13.9725 136.917C7.53894 126.318 6.93595 114.854 12.3647 103.391C16.1851 95.171 22.2163 89.1146 26.0367 86.0864C25.2325 83.2746 24.0259 78.5162 23.4229 75.0558C-5.73121 97.767 -2.71501 128.481 6.13175 142.973C12.7665 153.788 26.2379 160.494 41.1164 160.494C45.1374 160.494 49.1584 160.061 53.18 158.98C78.9161 153.572 98.4192 137.133 109.477 112.692ZM144.864 85.8706C129.583 66.6198 107.065 56.0215 81.3286 56.0215H78.1119C76.3023 52.1281 72.4819 49.5322 68.2597 49.5322H67.8573C61.6249 49.7486 56.7998 55.3721 57.0003 62.0779C57.2015 68.5665 62.2279 73.7578 68.2597 73.7578H68.6615C73.0849 73.5414 76.9053 70.5132 78.5136 66.4034H82.1328C97.4138 66.4034 111.89 71.1618 124.959 80.4629C135.012 87.6008 142.251 96.9019 146.272 108.149C149.69 117.234 149.488 126.102 145.869 133.673C140.24 145.136 130.79 151.409 118.324 151.409C110.282 151.409 102.641 148.813 98.6198 146.866C96.4084 149.029 92.3868 152.49 89.5718 154.654C98.218 158.979 107.065 161.359 115.509 161.359C134.811 161.359 149.087 149.894 154.515 138.431C160.346 125.885 159.944 104.256 144.864 85.8706ZM42.7248 116.368C42.926 122.857 47.9524 128.048 53.9841 128.048H54.3866C60.6195 127.832 65.4447 122.208 65.2435 115.503C65.0429 109.013 60.0159 103.823 53.9841 103.823H53.5824C53.18 103.823 52.5763 103.823 52.1752 104.039C43.9314 89.3304 40.5134 73.3249 41.72 56.0208C42.5236 43.0429 46.5452 31.7952 53.5824 22.4941C59.4129 14.491 70.6723 10.5977 78.3131 10.3819C99.6252 9.94906 108.673 38.5002 109.276 49.9644C111.89 50.613 116.313 52.1275 119.329 53.209C116.916 18.1692 96.8102 0 77.5089 0C59.4129 0 42.7248 14.0595 36.0894 34.824C26.8409 62.5101 32.8726 89.1146 44.132 110.096C43.1272 111.609 42.5236 113.989 42.7248 116.368V116.368Z" fill="#764ABC"/>
</g>
<defs>
<clipPath id="clip0">
<rect width="158" height="162" fill="white"/>
</clipPath>
</defs>
</svg>
