<svg width="170" height="170" viewBox="0 0 170 170" fill="none" xmlns="http://www.w3.org/2000/svg">
<path d="M154.114 26.7215L123.482 11.974C121.752 11.14 119.806 10.8647 117.913 11.1865C116.019 11.5082 114.273 12.411 112.916 13.7697L12.6422 105.187C11.4256 106.291 10.6974 107.833 10.6177 109.474C10.538 111.115 11.1133 112.72 12.2172 113.937C12.35 114.08 12.4828 114.218 12.6263 114.346L20.8128 121.783C21.8826 122.757 23.2596 123.325 24.7046 123.389C26.1496 123.453 27.5715 123.009 28.7232 122.134L149.503 30.5465C150.415 29.8543 151.503 29.4304 152.643 29.3226C153.783 29.2149 154.93 29.4275 155.956 29.9365C156.982 30.4456 157.845 31.2309 158.449 32.204C159.053 33.1771 159.373 34.2995 159.373 35.4447V35.0887C159.373 33.3404 158.88 31.6276 157.949 30.1474C157.019 28.6672 155.689 27.4797 154.114 26.7215Z" fill="#0065A9"/>
<path d="M154.114 143.279L123.482 158.031C121.752 158.863 119.806 159.137 117.913 158.815C116.02 158.494 114.274 157.592 112.916 156.236L12.6422 64.8129C11.4256 63.709 10.6974 62.167 10.6177 60.5261C10.538 58.8852 11.1133 57.2799 12.2172 56.0632C12.35 55.9198 12.4828 55.7816 12.6263 55.6541L20.8128 48.2167C21.8837 47.239 23.2638 46.6683 24.7124 46.6042C26.161 46.5401 27.5861 46.9867 28.7391 47.866L149.503 139.454C150.415 140.146 151.503 140.57 152.643 140.677C153.783 140.785 154.93 140.573 155.956 140.064C156.982 139.555 157.845 138.769 158.449 137.796C159.053 136.823 159.373 135.701 159.373 134.555V134.938C159.368 136.682 158.871 138.388 157.941 139.863C157.011 141.338 155.685 142.522 154.114 143.279Z" fill="#007ACC"/>
<path d="M123.483 158.031C121.753 158.863 119.807 159.137 117.914 158.816C116.021 158.494 114.275 157.592 112.917 156.236C113.68 156.989 114.648 157.5 115.7 157.705C116.752 157.91 117.841 157.8 118.831 157.389C119.821 156.978 120.667 156.283 121.264 155.393C121.861 154.503 122.182 153.456 122.187 152.384V17.6168C122.188 16.5399 121.869 15.487 121.271 14.5914C120.673 13.6958 119.823 12.9978 118.828 12.5859C117.833 12.174 116.738 12.0667 115.682 12.2776C114.626 12.4885 113.656 13.0081 112.896 13.7706C114.253 12.4124 115.999 11.5095 117.892 11.1869C119.785 10.8643 121.731 11.1378 123.462 11.9696L154.089 26.6959C155.669 27.4502 157.004 28.6361 157.939 30.1166C158.874 31.5971 159.372 33.3119 159.375 35.0631V134.938C159.375 136.688 158.881 138.402 157.95 139.883C157.018 141.365 155.687 142.553 154.11 143.311L123.483 158.031Z" fill="#1F9CF0"/>
</svg>
