<svg width="159" height="218" viewBox="0 0 159 218" fill="none" xmlns="http://www.w3.org/2000/svg">
<g clip-path="url(#clip0)">
<path d="M47.5144 134.743C41.4587 129.661 34.9975 124.791 30.5834 117.928C21.2912 105.826 14.1387 91.8179 9.24883 77.0947C6.29242 67.5199 5.28004 57.2553 1.46652 48.0523C-2.51717 41.3659 2.15283 34.0619 9.01716 31.9375C12.0711 31.3094 17.4442 28.2335 10.9581 30.4347C5.14215 34.9842 4.58193 26.3 10.5444 25.75C14.6138 25.1742 16.1119 21.6219 14.7188 18.4242C10.3488 15.3828 25.3116 12.0458 17.782 7.50893C9.94383 -1.51587 28.7505 -3.25324 24.1097 6.99806C23.0005 14.8798 37.2558 5.55025 33.9454 14.6539C37.3086 19.0265 46.5362 15.6511 46.3045 21.7816C51.2025 22.1408 52.8838 26.5346 57.4768 26.8725C62.2449 29.1691 70.88 30.9754 72.4998 36.7037C67.7732 40.6946 56.8314 28.4588 56.3029 39.5079C57.7326 55.8334 57.3681 72.6498 62.9647 88.1954C65.6118 97.6072 72.0327 105.016 77.8281 112.348C83.3764 119.526 90.8897 124.584 98.5497 128.838C105.267 132.218 112.509 134.457 119.831 135.866C122.8 133.443 128.043 124.436 132.673 128.231C132.896 132.504 123.483 137.157 132.231 136.685C137.372 135.03 140.934 140.922 145.166 135.605C149.065 140.533 161.37 132.46 158.597 142.53C154.844 145.113 149.374 143.552 145.617 147.106C139.424 143.804 134.492 150.056 127.633 149.268C120.018 150.723 112.268 151.309 104.549 151.321C91.881 150.255 78.9461 149.805 66.8956 145.099C60.1052 142.994 53.4813 138.869 47.5144 134.743ZM58.2121 139.692C64.8404 142.746 71.3228 145.97 78.5883 146.945C90.1146 148.652 102.018 151.286 113.585 148.886C108.35 146.365 102.936 149.866 97.7212 147.084C91.4667 148.518 84.754 146.716 78.3927 145.827C71.1632 142.392 63.3585 140.03 56.588 135.566C48.1237 132.27 60.9623 139.796 63.2486 140.407C68.5366 143.608 57.432 138.764 55.8638 137.434C51.4341 134.783 50.8702 135.337 55.4265 138.028C56.3439 138.6 57.2501 139.203 58.2121 139.692ZM45.5977 130.181C52.0229 132.72 45.5691 125.363 42.6289 125.788C41.3246 123.374 37.6459 121.849 40.2408 120.554C35.5745 122.283 35.3509 113.98 33.1585 115.168C28.2195 113.505 31.2368 107.611 25.3519 103.99C24.8153 100.176 19.5074 96.8704 17.8181 91.1202C17.0709 88.1742 11.8195 79.7213 15.0443 87.5885C17.7895 95.1622 22.6185 101.654 26.6395 108.131C29.7586 114.3 33.4466 120.753 39.1284 124.601C41.0457 126.563 42.8929 129.566 45.5971 130.181H45.5977ZM27.0947 108.504C27.3171 107.468 28.2686 110.744 27.0947 108.504V108.504ZM53.2943 133.223C54.7154 132.543 51.2472 132.365 53.2943 133.223V133.223ZM56.7786 134.58C56.4178 132.707 55.1868 135.628 56.7786 134.58V134.58ZM61.1449 136.521C63.22 134.409 57.9401 135.189 61.1449 136.521V136.521ZM68.626 140.969C69.8887 138.981 64.5845 140.221 68.626 140.969V140.969ZM54.2614 130.286C57.4848 128.058 50.0901 130.255 54.2614 130.286V130.286ZM57.5345 132.027C57.4407 130.853 56.3687 132.555 57.5345 132.027V132.027ZM73.8972 142.924C76.5288 144.697 89.2618 146.806 81.2895 143.652C79.9523 143.951 66.5056 139.592 73.8972 142.924ZM47.9212 121.338C47.6653 120.161 43.8344 120.034 47.9212 121.338V121.338ZM55.5358 126.079C57.5215 124.601 51.4217 124.939 55.5358 126.079V126.079ZM61.9443 130.269C64.7914 129.125 57.3314 129.12 61.9443 130.269V130.269ZM44.8182 117.737C47.9051 120.263 57.2712 118.062 49.5454 116.23C46.0325 114.232 38.1129 112.864 43.5115 117.435L44.8182 117.737ZM66.287 131.715C67.5739 129.38 60.8928 130.38 66.287 131.715V131.715ZM59.7636 126.186C67.3099 128.461 53.416 121.09 57.9003 125.346L58.896 125.827L59.7636 126.186ZM72.8426 134.25C79.9902 134.323 66.3845 133.198 72.8426 134.25V134.25ZM42.0693 113.326C41.7885 111.905 40.3066 113.444 42.0693 113.326V113.326ZM84.9328 141.486C85.1235 138.921 82.6012 143.396 84.9328 141.486V141.486ZM54.2694 121.294C53.8347 119.943 52.036 121.238 54.2694 121.294V121.294ZM42.7469 112.434C46.8498 112.17 37.126 110.506 42.7469 112.434V112.434ZM29.0965 103.022C28.5853 100.922 24.6333 99.2492 29.0965 103.022V103.022ZM64.9305 127.283C64.179 126.368 64.5765 127.482 64.9305 127.283V127.283ZM87.2309 141.885C87.1626 140.485 86.0166 142.412 87.2309 141.885V141.885ZM62.9567 125.108C63.3591 123.305 59.4562 124.561 62.9567 125.108V125.108ZM46.3412 113.872C49.3957 113.525 41.4469 111.671 46.3412 113.872V113.872ZM74.4469 132.504C79.2063 130.493 69.8086 131.524 74.4469 132.504V132.504ZM59.8295 121.919C65.3119 122.672 53.303 117.937 58.6233 121.494L59.8295 121.919ZM78.8846 134.419C84.0068 131.157 82.3174 142.067 87.5731 135.342C92.7549 131.304 83.0969 140.333 89.4817 136.061C94.1033 132.764 100.926 137.625 105.236 139.207C108.334 139.046 111.348 142.067 114.527 140.229C120.644 138.469 102.563 137.621 107.302 134.505C101.706 136.244 97.5721 132.434 94.8182 128.608C88.5389 127.061 81.2814 123.639 78.1461 117.707C76.8667 115.485 79.9908 118.024 77.0418 114.384C73.2606 110.796 71.3725 106.718 68.8335 102.355C65.7994 100.631 65.4423 95.5485 65.1373 102.187C65.1622 97.9968 61.4741 95.1761 60.5723 96.3462C60.5561 92.3116 64.5206 94.3352 61.7462 91.3501C61.1499 87.1684 59.1835 82.8104 58.5941 78.0873C57.6774 75.8125 58.4637 70.9383 55.4594 76.0895C54.3663 81.5362 55.098 69.3997 56.7998 73.3993C59.0332 69.3176 55.9948 69.798 55.8731 70.3618C57.3277 66.9176 56.7954 62.0295 55.4917 63.8927C56.2675 60.2397 56.7184 50.4523 54.3346 52.1897C55.7799 48.3684 57.0762 34.7099 50.7963 39.9194C48.2541 39.9578 43.8481 40.9033 41.7687 42.0079C48.2951 45.8471 41.1103 43.3941 38.4502 42.7832C38.1048 46.3361 35.4733 44.8022 32.1833 44.8366C37.439 45.5297 29.6244 50.5682 26.6158 48.6109C22.7005 50.604 29.9909 55.5869 26.6929 57.1288C27.0997 59.4473 20.6981 56.2892 21.198 61.6531C17.4001 59.9449 20.6782 68.0135 22.5787 65.2842C29.0406 67.1515 27.1276 71.4021 27.2897 75.4441C26.2376 77.7964 22.0912 69.9113 26.3674 70.2757C22.9924 64.4295 22.6359 68.1606 19.8329 70.8774C19.1832 71.0728 26.9811 74.7417 22.0875 76.5533C26.3923 77.2643 26.5183 81.285 27.3959 83.8288C29.9828 86.7046 29.4499 80.6516 32.5498 84.1104C30.5871 81.0293 22.1682 75.4302 28.9474 77.2259C28.9102 74.1275 27.7202 71.6268 29.7996 71.6871C31.8591 67.714 27.6431 81.4884 32.2815 76.4367C33.564 75.839 33.8857 72.459 36.1925 76.7574C39.5427 80.2759 37.403 82.8223 32.6752 79.5993C33.5199 82.6626 38.9986 83.7539 37.967 88.5426C39.0588 92.7542 40.5867 91.2024 41.9184 90.9599C42.9618 95.0502 43.5562 92.0432 43.6046 90.0932C48.3846 91.1865 47.2635 94.2014 48.7616 96.3072C52.0552 97.8921 44.0468 85.5569 49.7007 92.5978C55.6495 98.3301 51.9341 100.721 46.5939 99.8038C49.9727 99.5122 51.0602 104.679 55.2893 104.496C59.1431 106.454 61.7549 113.968 55.1104 110.839C52.8074 108.621 44.6474 105.887 51.313 110.103C57.4618 113.144 62.3517 114.96 68.285 118.778C72.5296 122.01 74.3643 125.713 75.9729 126.447C72.4035 128.266 65.2193 124.995 70.5551 123.994C67.2248 123.348 63.4809 121.551 66.6683 125.974C69.3813 128.392 76.2735 128.136 77.5126 128.409C76.4648 130.87 74.6661 131.066 77.553 131.256C74.332 133.089 78.589 133.375 78.8852 134.419H78.8846ZM72.2973 114.57C70.3359 112.382 69.8284 108.288 71.9482 111.848C73.037 112.317 75.4295 118.544 72.2973 114.57ZM93.7542 129.111C94.9765 129.025 93.7902 130.102 93.7542 129.111V129.111ZM69.2036 109.206C69.1254 105.9 69.9092 111.757 69.2036 109.206V109.206ZM67.0708 106.147C64.6019 101.065 70.1775 107.586 67.0708 106.147V106.147ZM41.224 87.1174C42.6742 86.7046 41.9389 89.7592 41.224 87.1174V87.1174ZM61.7952 99.0106C62.6846 95.4444 62.8393 102.001 61.7952 99.0106V99.0106ZM47.2635 88.2299C46.2405 86.2633 49.4044 90.0766 47.2635 88.2299V88.2299ZM59.7319 92.4938C57.3966 86.9133 61.389 89.4431 60.2518 93.4082L59.7319 92.4938ZM38.2272 77.1941C37.1838 75.3619 35.4571 69.9888 36.0136 68.3475C36.513 71.0205 41.3383 79.8465 38.3769 72.0045C35.1081 65.4313 42.2885 74.1354 43.0276 75.778C43.373 77.4074 41.0091 75.3321 42.609 79.1574C39.6893 74.8027 40.8867 81.5627 38.2272 77.1941ZM31.5827 72.3073C31.8548 68.048 33.1019 75.2274 31.5827 72.3073V72.3073ZM34.5721 73.4072C35.9975 70.1935 36.9881 77.8878 34.5721 73.4072V73.4072ZM27.3792 67.4722C24.9054 64.8456 23.1141 62.4284 27.4966 65.8421C29.1822 65.9117 23.7445 60.3444 27.9034 64.0743C32.2728 64.9244 30.0592 71.7228 27.3792 67.4722ZM31.156 67.3681C32.5945 65.8475 31.92 68.863 31.156 67.3681V67.3681ZM33.4833 68.1606C31.302 63.8059 36.1273 69.9894 33.4833 68.1606V68.1606ZM28.8617 63.4514C21.6695 56.6172 37.898 67.0209 30.0356 64.7157L28.8617 63.4514ZM49.4727 76.224C46.3579 74.2348 48.6442 62.2077 49.7087 70.4314C52.7347 69.3865 49.541 74.6821 51.7956 74.6297C51.4428 77.9693 50.4317 79.1713 49.4727 76.224ZM57.096 81.0332C57.4004 77.4074 57.7376 83.5127 57.096 81.0332V81.0332ZM55.7725 79.6338C56.1135 78.0872 55.8048 81.458 55.7725 79.6338V79.6338ZM30.2704 61.2065C25.6494 54.4034 43.7015 68.0864 33.2317 62.9313C32.1386 62.6238 30.8194 62.5152 30.2704 61.2065ZM44.9524 69.5091C44.5145 63.7808 45.9275 70.4566 44.9524 69.5091V69.5091ZM56.0967 77.1377C56.9575 73.8757 56.1625 79.2965 56.0967 77.1377V77.1377ZM30.9815 58.611C33.7274 57.9829 42.3612 63.7543 34.4336 60.2576C33.5528 59.2173 31.6722 59.6898 30.9815 58.6104V58.611ZM54.5651 71.1503C54.8588 65.2928 56.2072 67.6537 54.5775 71.9912L54.5651 71.1497V71.1503ZM33.0243 56.5709C34.1447 54.8196 30.0505 48.6546 33.6125 54.3604C35.1528 55.6644 38.0676 56.5443 35.4931 57.0943C39.5421 60.9037 34.5068 58.126 33.0243 56.5709ZM53.3993 69.3222C54.1719 62.6497 54.0825 73.2303 53.3993 69.3222V69.3222ZM30.6846 50.4092C31.5417 50.0183 31.1393 51.6258 30.6846 50.4092V50.4092ZM36.0012 53.7846C37.3688 50.7206 38.5228 57.1983 36.0012 53.7846V53.7846ZM50.9913 62.6795C50.9789 61.5053 51.2751 64.391 50.9913 62.6795V62.6795ZM50.1218 60.6307C48.0423 55.1535 52.0596 63.529 50.1218 60.6307V60.6307ZM48.846 57.038C48.4982 54.7758 50.0323 59.8806 48.846 57.038V57.038ZM50.9255 53.4334C49.4963 50.7505 52.7297 41.6044 53.0912 47.2764C51.5838 51.696 52.6564 54.1662 53.7036 48.2385C55.6458 43.5763 53.2856 57.4462 50.9255 53.4334ZM53.062 39.8326C53.6844 39.0175 53.2005 40.8152 53.062 39.8326V39.8326ZM49.4932 114.847C48.6479 114.059 49.6019 115.346 49.4932 114.847V114.847ZM56.8439 118.812C60.9331 119.935 60.9133 118.136 57.2165 117.598C55.2309 115.628 48.956 113.534 54.5731 117.356C54.9433 118.362 56.1172 118.335 56.8439 118.812ZM42.3289 108.525C44.5785 110.32 50.8124 113.603 45.5368 109.211C47.3157 107.004 42.1333 105.831 43.8518 104.354C39.4775 101.497 40.3985 101.753 43.4661 101.845C38.2104 99.3353 44.2251 99.5261 43.9413 98.24C41.9146 97.8146 33.8727 94.426 38.6042 98.517C33.7957 95.9036 37.4583 99.4917 36.0049 99.1146C31.0859 97.6847 40.3836 103.11 35.2248 101.762C38.044 104.145 42.8158 107.872 36.4148 104.284C35.5745 105.579 40.9967 107.542 42.3283 108.525H42.3289ZM50.0162 113.24C59.3618 116.451 45.4306 109.31 50.0162 113.24V113.24ZM89.3712 138.673C89.4929 136.693 88.0954 140.363 89.3712 138.673V138.673ZM93.4164 140.489C95.5728 138.263 93.5058 144.042 96.9901 139.944C97.0261 137.01 96.8845 135.277 92.9859 138.842C91.909 139.48 91.4307 142.179 93.4164 140.49V140.489ZM29.2064 97.4694C28.5437 94.6917 24.5638 94.7036 29.2064 97.4694V97.4694ZM33.523 100.488C31.9187 97.6509 27.8003 97.9193 33.523 100.488V100.488ZM58.0985 116.299C60.4996 118.574 69.1173 117.967 61.0114 116.581C59.8127 114.687 53.3918 115.143 58.0985 116.299ZM91.8767 138.558C95.5684 135.252 88.2992 140.031 91.8767 138.558V138.558ZM99.5571 144.186C99.5807 143.124 97.9652 144.649 99.5571 144.186V144.186ZM99.5695 142.699C103.659 138.081 95.6094 142.972 99.5695 142.699V142.699ZM18.5814 87.9794C15.097 82.6759 16.4169 80.2924 13.0543 75.9596C12.4158 72.6452 7.28741 65.1318 10.4022 73.0911C13.253 77.7493 14.0977 84.9586 18.582 87.9794H18.5814ZM98.2857 141.23C105.812 136.043 95.1995 138.973 98.2857 141.23V141.23ZM104.029 143.63C107.798 140.181 101.645 142.911 104.029 143.63V143.63ZM27.9264 91.6052C29.0033 89.8937 25.1408 91.3846 27.9264 91.6052V91.6052ZM102.83 141.992C106.477 139.484 101.99 139.869 102.169 142.222L102.83 141.992ZM53.3303 108.707C53.2049 107.009 51.4018 108.85 53.3303 108.707V108.707ZM56.3886 110.584C55.4141 108.487 54.8942 110.913 56.3886 110.584V110.584ZM108.683 143.687C113.357 140.09 105.853 142.998 107.704 144.372L108.683 143.687ZM106.892 142.764C110.701 139.362 102.875 144.272 106.892 142.764V142.764ZM116.037 149.259C118.593 147.434 112.931 148.67 116.037 149.259V149.259ZM30.2704 90.3708C33.6938 91.1891 43.9605 99.3698 37.9055 90.9387C34.8031 89.9593 36.6633 81.8695 33.4994 83.2994C35.6236 87.0862 35.2447 88.6931 30.7853 86.311C25.1855 83.3902 27.6382 87.7541 28.7356 88.9588C27.24 89.3225 30.7089 90.341 30.2697 90.3701L30.2704 90.3708ZM14.6623 77.2212C15.2753 74.5125 9.01281 62.3329 11.7059 71.1159C12.676 72.9573 12.5754 76.4446 14.6623 77.2212ZM43.3108 96.064C41.5445 94.4916 43.2258 95.8387 43.3108 96.064V96.064ZM47.6523 97.144C47.6523 94.2749 42.8525 95.9778 47.6523 97.144V97.144ZM85.3018 122.461C84.5832 120.501 82.4634 122.417 85.3018 122.461V122.461ZM87.1091 123.868C86.8402 122.772 86.0645 124.081 87.1091 123.868V123.868ZM102.03 133.899C103.464 132.768 100.239 133.752 102.03 133.899V133.899ZM22.4564 79.3442C26.5618 77.6493 18.0572 78.135 22.4564 79.3442V79.3442ZM81.987 119.353C81.9392 116.52 79.3678 120.06 81.987 119.353V119.353ZM20.8353 75.3096C23.4713 74.362 18.3944 74.6867 20.8353 75.3096V75.3096ZM28.4872 79.2654C28.4419 78.3344 27.6792 79.6212 28.4872 79.2654V79.2654ZM121.838 140.337C125.229 139.605 132.958 142.179 134.204 139.38C130.086 139.272 119.961 136.277 119.482 140.09L120.384 140.242L121.838 140.337H121.838ZM30.9194 79.92C30.9815 77.047 28.8201 79.812 30.9194 79.92V79.92ZM10.8009 65.0278C9.88731 59.5546 7.32406 64.1995 10.8009 65.0278V65.0278ZM15.597 66.3146C15.6585 64.5554 11.2059 64.7329 15.597 66.3146V66.3146ZM18.3385 67.7531C17.5466 67.068 17.7212 68.6145 18.3385 67.7531V67.7531ZM35.595 79.5602C36.408 78.7625 33.6702 78.9712 35.595 79.5602V79.5602ZM16.515 64.5123C16.0486 60.3789 10.955 63.8927 16.515 64.5123V64.5123ZM6.67377 57.7006C6.53527 55.7943 5.7148 58.4195 6.67377 57.7006V57.7006ZM8.13955 56.5231C7.90043 54.2603 6.8806 56.8081 8.13955 56.5231V56.5231ZM16.2231 61.6697C19.6428 60.2397 9.996 58.7058 15.5244 61.4013L16.2231 61.6697ZM124.434 132.98C126.623 130.84 121.656 132.318 124.434 132.98V132.98ZM137.507 140.207C138.385 137.444 135.297 140.572 137.507 140.207V140.207ZM17.0491 57.1506C17.4112 54.4737 14.3368 57.6834 17.0491 57.1506V57.1506ZM5.54462 48.9276C4.92726 45.1494 5.01235 38.5153 10.9221 40.7556C3.03416 42.428 16.3846 51.2183 14.6989 44.2774C18.0168 44.4516 21.1894 42.1855 19.4466 45.6205C25.9854 44.8539 30.5145 38.8055 36.8291 39.655C41.7469 38.9579 47.1244 38.4331 52.4248 36.3187C56.7824 35.9848 60.9772 30.98 58.5904 28.0122C52.6484 27.4755 46.4256 28.268 39.8588 29.6634C32.5815 31.2749 25.9699 34.3421 18.6261 35.6601C11.4655 36.6871 20.0639 38.4848 18.0125 38.8877C14.2797 40.2699 22.4682 41.2015 17.5292 42.6613C14.4797 42.0424 11.3034 40.9246 12.6071 37.4929C5.75145 38.4457 -0.275646 41.4785 5.14278 48.9223L5.54524 48.9263L5.54462 48.9276ZM22.0707 39.9492C23.675 33.6325 30.6803 45.1494 24.7023 40.79C23.9911 40.2175 22.8129 39.7537 22.0707 39.9492ZM22.3825 36.8853C24.7023 35.0445 23.6135 37.9216 22.3825 36.8853V36.8853ZM25.3271 36.9383C25.5395 34.0307 32.074 38.4762 26.4041 37.9825L25.3271 36.9376V36.9383ZM29.3561 35.2095C30.8306 33.3714 29.7834 36.8382 29.3561 35.2095V35.2095ZM30.3884 34.4733C32.8411 31.3319 44.2655 32.4663 35.9031 34.1646C33.6609 32.3623 31.9436 35.2261 30.3884 34.4733ZM45.3008 32.0203C44.9319 23.4362 52.713 35.0664 45.3008 32.0203V32.0203ZM49.5336 31.9938C51.0801 27.6703 55.5396 30.2571 50.2522 31.1232C50.3652 31.587 50.0938 33.3595 49.5336 31.9938ZM15.3815 54.9322C20.0024 51.912 10.4749 52.3116 15.3815 54.9322V54.9322ZM18.8006 55.942C20.4217 54.1053 15.2753 55.1966 18.8006 55.942V55.942ZM8.72897 48.3207C11.3686 46.1539 5.60176 47.4977 8.72897 48.3207V48.3207ZM145.223 139.419C145.3 136.906 143.204 140.549 145.223 139.419V139.419ZM131.353 129.319C131.747 126.43 129.571 129.57 131.353 129.319V129.319ZM149.037 140.394C152.729 140.407 160.225 139.167 152.192 139.172C150.929 139.38 144.845 139.337 149.037 140.394ZM21.8067 54.1689C24.796 53.9522 26.4811 50.6544 21.2254 50.8412C13.0828 49.9447 28.4096 53.8184 20.1819 52.7091C19.0776 53.489 21.7409 54.3856 21.8067 54.1689ZM24.4383 55.5909C24.1253 53.5454 23.5116 56.6775 24.4383 55.5909V55.5909ZM27.5612 46.7078C28.8568 44.9917 25.7662 46.2487 27.5612 46.7078V46.7078ZM17.6187 28.9829C22.9557 27.0507 30.2499 24.8754 32.7684 29.9371C30.2051 26.6485 31.733 23.407 34.1534 28.2209C37.5769 33.0872 39.2899 26.0071 37.0645 24.3731C39.6035 27.7352 42.4867 29.3262 38.762 24.5865C42.8115 19.3909 30.6598 25.2663 27.8984 25.2054C26.5705 25.8415 14.1791 28.5761 17.6193 28.9829H17.6187ZM20.7459 22.5973C23.7886 20.1496 31.2691 24.0571 26.4687 20.1615C25.9979 19.7202 15.9585 23.1168 20.7459 22.5973ZM31.838 23.0863C35.3956 23.1817 30.3033 17.9822 34.5429 20.3391C33.8485 17.9133 29.6046 17.4581 27.5295 16.488C26.3556 18.7064 29.9163 23.1168 31.838 23.0863ZM22.6912 12.3447C23.9222 10.5642 20.531 13.2505 22.6912 12.3447V12.3447ZM27.2251 13.5009C32.9628 12.6912 25.7618 10.8671 26.0662 13.4367L27.2245 13.5009H27.2251ZM18.7596 6.43881C14.7182 0.810568 26.3587 7.3837 22.252 1.49041C18.7963 -1.44232 15.4784 4.79685 18.7596 6.43881ZM70.6023 36.2279C72.4557 32.726 62.9554 31.5048 69.3558 34.9875C69.9446 35.1963 69.8117 36.4698 70.6023 36.2279Z" fill="#F2F1EF"/>
</g>
<defs>
<clipPath id="clip0">
<rect width="159" height="218" fill="white"/>
</clipPath>
</defs>
</svg>
