<svg width="461" height="324" viewBox="0 0 461 324" fill="none" xmlns="http://www.w3.org/2000/svg">
<path d="M12.9281 263.689C14.7773 255.797 20.4733 248.355 20.8426 240.371C21.6754 222.392 -4.34819 206.574 0.718286 188.906C5.60968 171.841 36.8911 163.086 44.0049 146.369C49.8519 132.623 37.5724 118.738 32.3048 104.885C22.8174 79.9178 38.5843 51.55 70.1747 36.7661C77.1232 33.5136 84.7065 30.8827 91.5165 27.4944C106.896 19.8459 118.23 8.40494 135.754 3.2034C153.722 -2.1279 174.617 0.195312 193.488 3.87924C212.366 7.56317 231.176 12.5626 250.834 12.3272C271.186 12.0829 294.527 6.76364 309.957 15.6371C325.139 24.3626 323.691 42.912 341.718 48.7471C349.071 51.1276 357.287 50.5121 365.596 49.8967C371.534 49.4561 377.52 49.0187 383.276 49.6704C394.18 50.9044 403.307 55.9973 410.09 61.8294C428.543 77.6872 432.525 100.494 420.031 118.759C415.542 125.319 408.955 131.81 409.83 138.998C410.705 146.301 419.008 152.062 424.53 158.396C433.666 168.877 434.302 183.806 420.761 191.888C416.549 194.406 411.037 196.301 408.868 199.787C405.244 205.615 412.932 211.624 419.959 215.848C439.1 227.348 459.794 240.971 454.312 262.397C451.503 273.378 441.649 282.29 429.945 288.071C409.607 298.114 381.753 299.919 357.525 295.076C348.917 293.356 340.385 290.833 331.406 291.028C315.249 291.374 302.127 300.309 286.182 302.077C271.542 303.699 257.665 299.152 243.816 294.604C229.623 289.943 215.463 285.285 200.548 287.262C188.258 288.893 178.414 294.782 167.675 299.101C139.969 310.245 105.917 310.978 73.5708 311.126C45.4507 311.25 7.09954 288.49 12.9281 263.689Z" fill="#B0DDF6"/>
<path d="M159.711 99.3449C175.836 66.3922 225.715 56.1532 251.198 89.2886C264.964 107.192 265.695 134.02 252.925 152.644C240.156 171.268 214.865 180.254 193.206 173.864C171.547 167.473 155.187 146.199 154.57 123.624C154.325 114.614 156.234 106.45 159.711 99.3449Z" fill="white"/>
<path d="M207.007 121.683C207.479 120.715 208.947 120.415 209.697 121.389C210.102 121.915 210.124 122.705 209.747 123.253C209.371 123.799 208.629 124.064 207.992 123.875C207.355 123.688 206.872 123.061 206.855 122.398C206.85 122.133 206.903 121.894 207.007 121.683Z" fill="#8069BB"/>
<path d="M206.003 77.4185C206.81 75.7613 209.317 75.248 210.598 76.9139C211.29 77.8121 211.327 79.1605 210.685 80.0956C210.044 81.033 208.774 81.4854 207.686 81.1635C206.595 80.8416 205.775 79.7716 205.742 78.6385C205.731 78.1862 205.827 77.7752 206.003 77.4185Z" fill="#B1B3E1"/>
<path d="M206.003 164.987C206.81 163.332 209.317 162.817 210.598 164.483C211.29 165.382 211.327 166.731 210.685 167.667C210.044 168.603 208.774 169.054 207.686 168.733C206.595 168.412 205.775 167.342 205.742 166.208C205.731 165.756 205.827 165.345 206.003 164.987Z" fill="#B1B3E1"/>
<path d="M253.387 119.921C255.042 120.732 255.557 123.238 253.894 124.521C252.993 125.212 251.643 125.247 250.71 124.608C249.773 123.964 249.32 122.694 249.644 121.604C249.964 120.517 251.034 119.695 252.167 119.662C252.619 119.651 253.03 119.747 253.387 119.921Z" fill="#B1B3E1"/>
<path d="M165.818 119.921C167.475 120.732 167.989 123.238 166.323 124.521C165.423 125.212 164.076 125.247 163.139 124.608C162.203 123.964 161.753 122.694 162.074 121.604C162.395 120.517 163.463 119.695 164.598 119.664C165.051 119.651 165.46 119.747 165.818 119.921Z" fill="#B1B3E1"/>
<path d="M241.954 152.418C242.553 154.163 241.143 156.299 239.06 156.027C237.935 155.881 236.954 154.954 236.746 153.837C236.539 152.721 237.12 151.503 238.114 150.962C239.112 150.419 240.449 150.593 241.274 151.373C241.602 151.684 241.824 152.042 241.954 152.418Z" fill="#B1B3E1"/>
<path d="M180.028 90.4955C180.626 92.2419 179.217 94.3776 177.134 94.1035C176.009 93.9578 175.029 93.0313 174.82 91.9157C174.612 90.8 175.193 89.5821 176.188 89.0384C177.185 88.4969 178.523 88.6709 179.349 89.4516C179.677 89.7626 179.898 90.1215 180.028 90.4955Z" fill="#B1B3E1"/>
<path d="M174.907 152.418C174.312 154.162 175.718 156.299 177.801 156.027C178.929 155.88 179.906 154.952 180.115 153.836C180.323 152.721 179.742 151.503 178.747 150.96C177.75 150.417 176.412 150.593 175.588 151.372C175.26 151.684 175.037 152.042 174.907 152.418Z" fill="#B1B3E1"/>
<path d="M236.831 90.4955C236.233 92.2419 237.642 94.3776 239.721 94.1035C240.85 93.9578 241.826 93.0292 242.035 91.9157C242.244 90.8 241.665 89.5821 240.667 89.0384C239.671 88.4969 238.336 88.6709 237.509 89.4516C237.181 89.7626 236.959 90.1215 236.831 90.4955Z" fill="#B1B3E1"/>
<path d="M161.291 100.052C157.784 107.216 156.123 115.099 156.351 123.481C156.941 145.131 173.054 166.08 193.83 172.21C214.602 178.339 239.503 169.49 251.752 151.627C264.001 133.764 263.281 107.346 250.077 90.1759C239.234 76.0788 222.731 69.0259 204.804 70.831C185.851 72.7361 169.177 83.9342 161.291 100.052ZM207.753 186.888C201.851 186.888 195.944 186.081 190.226 184.393C163.989 176.651 144.402 151.183 143.657 123.836C143.37 113.379 145.473 103.492 149.896 94.4494C159.698 74.4194 180.229 60.5245 203.477 58.1844C225.891 55.9313 246.537 64.7741 260.129 82.4488C276.808 104.134 277.687 136.252 262.213 158.814C250.112 176.462 228.953 186.888 207.753 186.888Z" fill="#B1B3E1"/>
<path d="M207.385 123.296C207.385 123.296 203.512 119.381 199.637 115.465C198.658 114.503 197.729 113.468 196.844 112.522C195.961 111.572 195.139 110.684 194.432 109.923C193.025 108.405 192.086 107.394 192.086 107.394C191.875 107.165 191.888 106.813 192.114 106.602C192.331 106.4 192.666 106.402 192.88 106.602L192.893 106.615C192.893 106.615 193.895 107.553 195.4 108.96C196.15 109.662 197.025 110.482 197.964 111.361C198.908 112.235 199.887 113.185 200.939 114.081C205.078 117.711 209.219 121.343 209.219 121.343C209.778 121.83 209.834 122.676 209.349 123.235C208.862 123.792 208.016 123.851 207.457 123.363L207.385 123.296Z" fill="#8069BB"/>
<path d="M209.504 121.413L240.426 122.824C240.663 122.835 240.85 123.037 240.837 123.277C240.826 123.507 240.633 123.688 240.406 123.692L209.448 124.092C208.708 124.101 208.102 123.509 208.093 122.77C208.082 122.03 208.674 121.421 209.413 121.413H209.487H209.504Z" fill="#8069BB"/>
<path d="M413.962 156.404C413.168 154.012 411.731 151.878 409.148 150.549C405.856 148.852 401.627 148.778 397.663 148.763C381.332 148.698 287.219 148.719 270.888 148.769C254.03 148.822 237.499 147.604 220.642 148.637C217.2 148.849 213.563 149.171 210.801 150.764C207.009 152.953 205.891 156.906 205.412 160.528C204.508 167.37 205.347 174.244 205.319 181.104C205.292 187.969 205.21 194.835 205.247 201.703C205.373 225.809 205.547 213.258 205.777 237.363C205.854 245.154 205.867 252.942 205.938 260.732C206.01 267.896 205.24 275.638 206.565 282.706C207.009 285.077 208.218 287.436 210.495 289.076C212.371 290.427 214.829 291.197 217.298 291.764C226.645 293.911 237.884 293.376 247.521 293.654C262.028 294.072 276.545 294.267 291.062 294.354C303.162 294.426 393.17 294.593 405.151 293.106C417.361 291.59 415.078 278.913 415.351 271.843C415.723 262.259 415.326 248.718 415.337 239.129C415.356 223.812 415.315 205.303 415.265 193.034C415.23 184.016 414.833 175.086 414.918 166.077C414.946 163.262 415.028 159.603 413.962 156.404Z" fill="#333A5B"/>
<path d="M407.135 163.287C406.392 161.158 405.048 159.259 402.636 158.076C399.561 156.565 395.613 156.5 391.904 156.485C376.651 156.428 288.736 156.446 273.48 156.491C257.734 156.538 242.291 155.453 226.547 156.374C223.327 156.561 219.932 156.849 217.352 158.267C213.803 160.215 212.761 163.733 212.315 166.956C211.472 173.046 212.255 179.163 212.229 185.267C212.205 191.381 212.129 197.49 212.161 203.601C212.283 225.056 212.444 213.883 212.657 235.34C212.729 242.271 212.74 249.205 212.809 256.138C212.872 262.515 212.157 269.404 213.392 275.696C213.805 277.806 214.938 279.906 217.063 281.364C218.818 282.564 221.115 283.251 223.418 283.756C232.152 285.668 242.649 285.191 251.65 285.437C265.201 285.809 278.764 285.983 292.326 286.061C303.628 286.127 387.709 286.274 398.902 284.95C410.313 283.602 408.177 272.318 408.432 266.027C408.777 257.495 408.408 245.445 408.419 236.91C408.435 223.279 408.4 206.805 408.351 195.887C408.315 187.86 407.944 179.913 408.028 171.894C408.052 169.39 408.128 166.133 407.135 163.287Z" fill="#B1B3E1"/>
<path d="M419.314 299.743C417.45 299.48 415.527 299.354 413.724 299.378C411.126 299.413 408.644 299.906 405.976 299.93C398.852 300.002 391.722 300.048 384.595 300.041C373.751 300.03 362.906 300.02 352.065 300.009C338.6 299.998 325.141 299.987 311.683 299.978C298.12 299.969 284.558 299.963 270.995 299.961C259.843 299.959 248.694 299.961 237.54 299.976C231.316 299.985 225.085 299.974 218.86 300.037C215.396 300.072 211.825 300.207 208.389 300.022C206.973 299.946 205.548 299.915 204.128 299.926C202.699 299.939 201.194 300.013 199.996 300.524C200.905 302.925 202.306 305.241 204.15 307.396C206.033 309.604 207.525 309.991 211.366 310.039C222.353 310.178 236.62 309.924 246.544 309.972C261.486 310.043 396.573 310.111 408.921 309.878C411.322 309.832 414.127 309.952 416.465 309.661C421.24 309.067 422.951 304.147 424.146 301.494C424.216 301.344 424.28 301.183 424.216 301.031C424.118 300.8 423.748 300.674 423.412 300.583C422.142 300.226 420.745 299.946 419.314 299.743Z" fill="#333A5B"/>
<path d="M428.107 301.109C427.963 302.531 427.492 303.68 426.272 303.706C424.753 303.736 423.236 303.776 421.72 303.776C419.994 303.684 418.269 303.584 416.544 303.619C403.825 303.854 256.665 303.81 240.458 303.727C229.697 303.673 214.229 303.969 202.314 303.804C197.536 303.743 196.274 303.282 195.905 300.356C195.689 298.652 195.776 296.274 196.059 294.778C196.3 293.501 197.294 292.799 200.058 292.503C203.921 292.09 206.487 292.275 210.437 292.234C217.187 292.164 223.947 292.171 230.695 292.164C242.789 292.151 254.886 292.144 266.98 292.151C274.559 292.151 282.136 292.151 289.712 292.157C296.834 292.157 303.967 292.164 311.094 292.164C317.648 292.171 324.196 292.177 330.742 292.186C338.79 292.192 346.835 292.199 354.883 292.205C366.647 292.214 378.402 292.227 390.161 292.24C399.042 292.247 407.841 292.177 416.699 292.075C419.526 292.042 422.335 292.051 425.156 292.11C425.724 292.12 426.32 292.142 426.791 292.453C427.893 293.18 427.927 295 427.941 296.164C427.949 297.12 428.282 299.328 428.107 301.109Z" fill="#5A5D78"/>
<path d="M330.743 292.185C330.069 294.26 329.047 296.322 327.04 296.998C326.239 297.259 325.378 297.266 324.539 297.259C315.345 297.246 306.145 297.233 296.952 297.22C295.688 297.22 294.375 297.205 293.225 296.674C291.453 295.852 290.472 294.006 289.713 292.157C296.836 292.157 303.967 292.164 311.095 292.164C317.649 292.17 324.196 292.177 330.743 292.185Z" fill="#333A5B"/>
<path d="M206.944 296.292C205.959 296.455 205.061 297.205 204.995 298.597C204.969 299.138 205.065 299.704 205.389 300.139C205.648 300.489 206.041 300.728 206.459 300.845C207.846 301.241 209.456 300.141 209.588 298.703C209.756 296.916 208.27 296.07 206.944 296.292Z" fill="#333A5B"/>
<path d="M216.325 296.292C215.339 296.455 214.441 297.205 214.378 298.597C214.352 299.138 214.448 299.704 214.77 300.139C215.031 300.489 215.422 300.728 215.842 300.845C217.231 301.241 218.839 300.141 218.971 298.703C219.134 296.916 217.649 296.07 216.325 296.292Z" fill="#333A5B"/>
<path d="M234.694 169.703L234.389 169.69C233.18 169.733 231.64 170.82 230.675 171.482C229.949 171.978 229.227 172.589 228.971 173.431C228.847 173.838 228.84 174.27 228.836 174.697C228.742 182.793 229.225 257.404 229.802 274.779C229.847 276.186 229.834 277.849 231.011 278.619C231.716 279.083 232.624 279.052 233.471 279.037C282.298 278.197 352.05 279.196 388.65 279.407C389.964 279.415 391.347 279.15 392.386 278.345C393.737 277.297 394.316 275.468 394.363 273.759C394.631 264.633 394.72 255.499 394.82 246.369C394.954 234.127 395.035 221.885 395.077 209.643C395.114 199.263 395.137 188.882 395.038 178.504C395.017 176.388 395.57 173.242 394.085 171.603C393.411 170.857 392.525 170.342 391.656 169.837C390.898 169.399 390.143 168.96 389.385 168.522C389.24 168.439 389.094 168.354 388.928 168.345C388.747 168.335 388.577 168.416 388.414 168.487C387.208 168.992 385.896 168.748 384.634 168.802C383.315 168.86 382.003 168.943 380.689 169.1C377.436 169.486 374.215 170.176 371.049 171.026C353.204 175.824 334.551 177.117 316.097 178.074C290.936 179.376 266.266 170.721 241.07 170.974C239.62 170.707 238.167 170.441 236.708 170.174C236.134 170.069 235.331 169.77 234.694 169.703Z" fill="#333A5B"/>
<path d="M385.172 268.269C360.875 264.443 336.518 260.616 311.946 259.585C287.375 258.556 263.713 267.91 239.12 268.16L235.557 268.195L234.046 271.296C233.978 273.275 233.96 274.774 235.031 274.746C238.628 274.65 310.08 272.486 335.668 273.149C352.48 273.584 369.562 273.691 385.208 274.041C387.709 274.098 390.394 274.385 390.329 271.884C390.311 271.216 390.443 270.527 390.241 269.722C389.883 268.273 386.773 268.521 385.172 268.269Z" fill="#E0F0FB"/>
<path d="M312.132 270.509C307.428 268.867 300.643 268.202 292.746 267.541C271.082 265.733 247.635 271.16 234.047 271.294C233.321 248.798 233.332 221.983 232.871 198.878C232.76 193.138 233.034 176.178 232.966 167.81C239.889 165.028 253.751 164.043 263.501 163.49C271.922 163.016 280.397 162.746 288.774 163.719C290.699 163.942 292.57 164.141 294.383 164.412C297.121 164.811 299.723 165.359 302.156 166.378C304.375 167.296 306.46 168.597 308.387 170.512C309.029 171.152 309.648 171.829 310.068 172.626C310.647 173.726 311.175 175.111 311.204 176.348C311.541 191.605 312.134 262.108 312.132 270.509Z" fill="white"/>
<path d="M311.199 176.348C311.173 175.108 310.646 173.725 310.068 172.627C309.646 171.827 309.028 171.15 308.389 170.513C307.982 170.11 307.571 169.744 307.151 169.393C307.227 177.014 308.352 255.792 308.53 269.515C309.835 269.805 311.042 270.129 312.134 270.509C312.136 262.11 311.54 191.605 311.199 176.348Z" fill="#E0F0FB"/>
<path d="M242.522 182.014C252.98 179.887 264.385 178.771 275.368 178.771C283.634 178.771 291.662 179.402 298.86 180.707C299.121 180.753 299.369 180.581 299.417 180.322C299.463 180.061 299.291 179.813 299.032 179.765C291.762 178.452 283.682 177.817 275.368 177.817C264.322 177.817 252.859 178.937 242.33 181.079C242.072 181.131 241.904 181.383 241.958 181.642C242.011 181.901 242.263 182.069 242.522 182.014Z" fill="#E8F0F3"/>
<path d="M241.281 194.117C253.238 191.761 265.408 190.574 277.624 190.574C285.151 190.574 292.694 191.024 300.214 191.933C300.475 191.964 300.71 191.779 300.741 191.518C300.773 191.259 300.586 191.022 300.327 190.991C292.768 190.078 285.188 189.626 277.624 189.626C265.348 189.626 253.114 190.82 241.098 193.186C240.842 193.236 240.672 193.486 240.724 193.743C240.774 194.001 241.024 194.167 241.281 194.117Z" fill="#E8F0F3"/>
<path d="M242.992 205.452C254.433 202.933 266.584 201.916 278.385 201.916C285.946 201.916 293.367 202.333 300.363 203.04C300.624 203.066 300.857 202.877 300.883 202.616C300.909 202.355 300.72 202.124 300.459 202.098C293.432 201.387 285.981 200.967 278.385 200.967C266.53 200.967 254.316 201.987 242.787 204.526C242.533 204.582 242.37 204.834 242.426 205.091C242.483 205.348 242.735 205.509 242.994 205.452H242.992Z" fill="#E8F0F3"/>
<path d="M242.87 216.026C255.115 213.398 267.644 212.07 280.221 212.07C287.722 212.07 295.242 212.542 302.73 213.494C302.989 213.527 303.226 213.342 303.261 213.083C303.294 212.822 303.109 212.585 302.85 212.552C295.321 211.596 287.763 211.122 280.221 211.122C267.576 211.122 254.98 212.457 242.67 215.097C242.414 215.153 242.251 215.406 242.307 215.662C242.361 215.917 242.614 216.082 242.87 216.026Z" fill="#E8F0F3"/>
<path d="M243.427 227.028C254.641 224.714 266.004 223.857 277.426 223.857C285.495 223.857 293.589 224.284 301.68 224.93C301.941 224.949 302.169 224.756 302.191 224.495C302.21 224.234 302.017 224.003 301.756 223.984C293.648 223.338 285.527 222.909 277.426 222.909C265.958 222.909 254.527 223.768 243.236 226.1C242.979 226.152 242.814 226.404 242.866 226.661C242.92 226.917 243.171 227.081 243.427 227.028Z" fill="#E8F0F3"/>
<path d="M244.876 237.837C255.859 235.751 267.022 234.698 278.213 234.698C285.747 234.698 293.294 235.175 300.812 236.132C301.071 236.164 301.308 235.982 301.34 235.721C301.375 235.462 301.19 235.223 300.931 235.19C293.374 234.229 285.786 233.75 278.213 233.75C266.963 233.75 255.741 234.807 244.7 236.906C244.441 236.954 244.271 237.202 244.321 237.461C244.371 237.717 244.619 237.887 244.876 237.839V237.837Z" fill="#E8F0F3"/>
<path d="M244.092 249.264C254.982 247.019 266.228 245.91 277.452 245.91C285.024 245.91 292.588 246.415 300.031 247.415C300.29 247.45 300.527 247.269 300.564 247.008C300.598 246.75 300.418 246.51 300.157 246.476C292.673 245.469 285.066 244.962 277.452 244.962C266.164 244.962 254.855 246.075 243.903 248.335C243.644 248.387 243.479 248.64 243.531 248.896C243.585 249.153 243.838 249.316 244.092 249.264Z" fill="#E8F0F3"/>
<path d="M333.355 163.269C341.715 162.124 350.192 162.224 358.622 162.533C368.378 162.888 382.138 164.858 390.838 166.76C390.936 175.126 389.953 191.552 389.958 197.296C389.966 220.405 390.514 247.214 390.244 269.722C376.655 269.859 353.103 264.904 331.484 267.151C323.599 267.971 316.827 268.773 312.156 270.509C311.985 262.112 311.165 191.778 311.196 176.539C311.199 175.298 311.474 174.043 312.026 172.934C312.431 172.126 313.036 171.437 313.664 170.787C319.001 165.256 325.921 164.286 333.355 163.269Z" fill="white"/>
<path d="M380.139 179.691C370.635 177.953 360.386 177.062 350.386 177.062C340.896 177.062 331.633 177.864 323.427 179.519C323.168 179.572 322.999 179.824 323.055 180.083C323.105 180.341 323.358 180.509 323.616 180.457C331.741 178.815 340.95 178.016 350.386 178.016C360.328 178.016 370.523 178.906 379.969 180.631C380.225 180.678 380.476 180.506 380.524 180.248C380.572 179.989 380.4 179.739 380.139 179.691Z" fill="#E8F0F3"/>
<path d="M381.614 191.769C370.806 189.868 359.84 188.909 348.843 188.909C340.009 188.909 331.159 189.526 322.354 190.77C322.093 190.807 321.912 191.047 321.948 191.306C321.986 191.566 322.225 191.747 322.486 191.71C331.247 190.472 340.054 189.857 348.843 189.857C359.784 189.857 370.696 190.812 381.449 192.704C381.708 192.749 381.957 192.578 382 192.319C382.046 192.062 381.873 191.816 381.617 191.771L381.614 191.769Z" fill="#E8F0F3"/>
<path d="M380.154 203.14C369.905 201.1 359.14 200.259 348.58 200.259C339.566 200.259 330.705 200.872 322.446 201.875C322.185 201.907 322 202.144 322.033 202.403C322.063 202.664 322.301 202.849 322.562 202.818C330.783 201.818 339.612 201.209 348.58 201.209C359.087 201.209 369.794 202.044 379.969 204.071C380.227 204.121 380.478 203.956 380.528 203.699C380.579 203.443 380.414 203.193 380.154 203.14Z" fill="#E8F0F3"/>
<path d="M380.488 213.709C369.307 211.545 357.915 210.453 346.486 210.453C337.741 210.453 328.976 211.091 320.27 212.376C320.011 212.415 319.831 212.657 319.872 212.915C319.907 213.174 320.151 213.352 320.409 213.316C329.067 212.037 337.787 211.404 346.486 211.404C357.854 211.404 369.188 212.487 380.306 214.64C380.564 214.69 380.813 214.523 380.863 214.266C380.912 214.007 380.747 213.759 380.488 213.709Z" fill="#E8F0F3"/>
<path d="M380.144 224.719C370.26 222.888 360.297 222.175 350.312 222.175C340.742 222.175 331.151 222.829 321.591 223.786C321.33 223.812 321.138 224.045 321.163 224.306C321.191 224.567 321.424 224.756 321.687 224.728C331.227 223.775 340.785 223.123 350.312 223.123C360.254 223.123 370.156 223.834 379.969 225.652C380.228 225.7 380.473 225.53 380.521 225.274C380.572 225.015 380.402 224.767 380.144 224.719Z" fill="#E8F0F3"/>
<path d="M378.899 235.553C369.004 233.878 358.986 233.037 348.945 233.037C340.169 233.037 331.379 233.68 322.643 234.97C322.386 235.009 322.206 235.251 322.244 235.509C322.282 235.77 322.524 235.947 322.784 235.909C331.473 234.626 340.217 233.987 348.945 233.987C358.933 233.987 368.898 234.824 378.74 236.488C378.997 236.531 379.245 236.358 379.288 236.101C379.33 235.842 379.159 235.596 378.899 235.553Z" fill="#E8F0F3"/>
<path d="M379.924 246.963C370.048 245.134 359.906 244.233 349.769 244.233C340.999 244.233 332.231 244.908 323.645 246.239C323.384 246.278 323.209 246.521 323.247 246.78C323.288 247.039 323.533 247.217 323.791 247.176C332.329 245.851 341.049 245.182 349.769 245.182C359.853 245.182 369.934 246.078 379.752 247.896C380.01 247.944 380.255 247.774 380.304 247.515C380.352 247.259 380.182 247.011 379.924 246.963Z" fill="#E8F0F3"/>
<path d="M303.156 261.203C301.105 258.994 299.628 255.46 298.863 254.453C298.26 255.29 296.595 258.417 294.692 261.288C295.127 228.183 294.409 197.022 294.383 164.411C297.121 164.811 299.722 165.359 302.155 166.378C302.338 189.241 303.165 230.625 303.012 235.375C302.797 242.285 303.676 254.244 303.156 261.203Z" fill="#F0387E"/>
<path d="M158.497 207.818C158.364 208.029 158.234 208.237 158.103 208.446C155.96 211.902 153.822 214.627 154.694 218.959C155.25 221.73 156.836 224.168 158.461 226.48C164.878 235.614 172.402 243.972 180.795 251.334C184.993 255.013 189.406 258.447 194.01 261.605C199.012 265.039 204.547 268.497 210.611 270.041C222.42 273.051 231.306 266.783 240.003 259.598C251.362 250.207 261.675 238.831 274.533 231.469C274.172 231.673 272.199 227.408 271.912 226.923C270.964 225.314 269.344 224.601 267.945 223.402C266.036 221.769 260.718 215.412 257.73 217.594C254.087 220.26 250.442 222.924 246.797 225.586C243.459 228.026 240.229 229.67 236.571 231.562C230.571 234.666 222.818 237.906 215.911 236.847C211.126 236.112 207.22 232.756 203.664 229.47C197.151 223.461 190.844 217.224 184.763 210.778C181.769 207.605 178.369 204.445 175.823 200.893C174.218 198.657 171.147 194.482 167.777 195.517C166.119 196.026 164.31 199.562 163.325 200.854C161.614 203.105 160.003 205.43 158.497 207.818Z" fill="#FBC3B8"/>
<path d="M129.057 165.595C129.047 168.191 127.043 170.381 125.068 172.223C122.156 174.962 119.865 181.194 116.14 182.888C110.352 185.52 105.042 186.435 99.0326 184.3C93.024 182.16 85.5326 173.351 83.055 167.842C82.7486 167.148 82.4939 166.274 83.0378 165.714C83.2486 165.495 83.523 165.246 83.8366 165.238C98.6505 165.052 100.535 159.086 100.763 153.274C100.841 151.34 100.731 149.421 100.849 147.742H110.157L110.065 147.878L110.038 147.936C109.649 148.964 109.876 153.494 110.903 157.381L110.972 157.635C111.575 159.825 112.45 161.776 113.604 162.761C116.496 165.222 125.168 165.087 129.057 165.595Z" fill="#FBC3B8"/>
<path d="M101.51 147.393C101.51 147.512 101.52 147.622 101.52 147.742H107.602L101.51 147.393Z" fill="#B0C8DB"/>
<path d="M107.602 147.742H101.52C101.554 149.178 101.614 150.617 101.68 152.051L101.672 152.257L101.772 152.392C101.978 152.699 102.215 152.994 102.478 153.274C103.581 154.47 105.176 155.387 106.668 156.015C108.036 156.592 109.462 157.018 110.903 157.381C110.19 154.678 109.862 151.664 109.859 149.734C109.858 148.887 109.919 148.249 110.038 147.936L110.065 147.878L107.602 147.742Z" fill="#F9B0A4"/>
<path d="M165.335 315.199C164.881 316.48 164.168 317.485 163.102 318.07C161.483 318.958 159.603 319.214 157.77 319.447C130.243 322.905 101.319 324.745 73.6497 322.405C67.2634 321.867 60.8688 321.026 54.6701 319.342C52.2317 318.681 49.1635 318.429 48.3353 316.017C48.1161 315.376 48.279 314.308 48.2655 313.631C48.149 308.344 48.2055 299.012 48.2375 293.725C48.3403 276.979 49.1587 260.162 48.8229 243.42C48.7629 240.16 48.7129 236.887 48.7129 233.609C48.7129 226.413 48.9578 219.219 49.9184 212.083C50.6389 206.709 51.7587 201.389 53.3198 196.196C54.8722 191.003 56.6379 185.183 59.6007 180.609C62.4333 176.255 66.2097 171.937 70.4443 168.941C74.9068 165.783 79.3375 165.308 84.6062 164.214C85.9293 163.943 88.1962 163.434 89.5293 163.195C90.9984 162.924 91.0484 163.729 91.8548 164.894C93.3816 167.073 95.2317 169.05 97.3954 170.603C99.3708 172.021 101.614 173.082 103.987 173.634C106.279 174.168 108.232 173.819 110.379 172.877C114.493 171.07 117.267 167.793 118.676 163.611C121.673 164.003 124.692 164.231 127.662 164.74C130.521 165.214 133.24 166.242 135.98 167.141C151.32 174.965 155.114 198.129 157.023 213.336C157.933 220.55 158.838 227.774 159.748 234.992C159.748 242.867 160.711 250.823 161.34 258.663C162.22 269.628 163.166 280.594 164.181 291.548C164.561 295.639 167.232 309.839 165.335 315.199Z" fill="#5F4DAA"/>
<path d="M114.059 182.251C118.137 177.573 121.47 170.722 124.303 164.268C122.426 164.043 120.546 163.854 118.676 163.608C117.27 167.793 114.496 171.074 110.381 172.879C108.232 173.824 106.279 174.167 103.985 173.633C101.615 173.08 99.3707 172.018 97.3954 170.601C95.2266 169.047 93.3791 167.076 91.8572 164.892C91.0462 163.728 90.9947 162.927 89.5243 163.193C89.0367 163.282 88.4166 163.408 87.7672 163.544C87.3212 163.636 91.1858 172.4 91.5925 173.032C93.5727 176.102 95.5944 179.132 98.2311 181.738C100.848 179.556 103.402 176.877 106.019 174.696C107.935 176.831 112.9 181.24 114.059 182.251Z" fill="white"/>
<path d="M98.5666 259.603C87.7302 262.391 73.6322 263.604 61.2936 262.995C58.7328 262.869 55.5445 262.099 55.0667 259.581C54.8853 258.628 55.1796 257.656 55.4686 256.73C59.3748 244.19 63.281 231.654 67.1895 219.116C67.3489 218.603 67.5081 218.044 67.3194 217.542C67.1602 217.113 66.7828 216.815 66.4201 216.539C60.2595 211.844 54.6428 206.781 49.004 201.415C46.7202 199.243 42.9243 210.956 42.0028 213.133C39.8291 218.266 37.6971 223.418 35.6754 228.616C31.6394 238.985 28.0151 249.531 25.3072 260.333C23.496 267.563 22.2366 275.74 26.2213 282.036C33.1979 293.058 46.2741 292.084 57.4364 291.24C63.0604 290.816 68.6525 290 74.1883 288.937C85.3433 286.794 96.2679 283.643 107.168 280.483C108.744 280.024 110.577 279.311 110.942 277.708C111.484 275.311 109.677 272.093 108.817 269.894C106.747 264.616 105.637 259.005 99.0051 259.566C98.8607 259.579 98.7087 259.566 98.5666 259.603Z" fill="#FBC3B8"/>
<path d="M53.4419 184.139C47.3596 190.561 42.6425 197.812 38.4544 205.58C36.3151 209.545 34.0189 213.562 32.2227 217.696C30.5807 221.478 28.26 225.191 27.1843 229.24C26.8314 230.569 26.6132 232.004 27.0667 233.303C27.3583 234.142 27.912 234.866 28.5199 235.515C34.4869 241.887 42.9952 245.234 51.2219 247.578C53.5548 248.242 58.3111 250.377 59.9729 248.279C60.9039 247.102 61.3058 244.731 61.8254 243.313C62.4283 241.665 63.0213 240.012 63.5946 238.353C65.8492 231.833 67.8218 225.204 69.1502 218.429C70.4635 211.742 70.7063 207.686 68.5204 201.292C67.648 198.747 67.1994 196.089 66.5256 193.473C65.6433 190.059 65.1287 186.546 64.9817 183.023C64.9132 181.34 64.2173 174.153 65.5724 173.033C61.1784 176.66 57.1522 180.222 53.4419 184.139Z" fill="#5F4DAA"/>
<path d="M26.8463 225.724C25.6872 228.133 24.6726 231.05 25.6184 233.316C27.5177 237.87 34.4969 241.263 38.5551 243.516C41.9663 245.406 45.5269 247.03 49.193 248.366C51.8126 249.32 54.5891 250.545 57.4268 250.547C60.5292 250.551 66.016 244.692 63.6683 241.58C63.117 240.847 62.2593 240.419 61.4335 240.016C56.481 237.605 50.0727 235.101 44.7403 231.998C39.947 229.208 36.2148 226.509 32.284 222.577C31.5955 222.085 30.8162 221.568 29.9831 221.691C29.037 221.833 28.4172 222.731 27.9614 223.571C27.6158 224.208 27.2237 224.938 26.8463 225.724Z" fill="white"/>
<path d="M153.584 174.074C159.078 177.205 166.05 183.051 171.047 186.927C175.646 190.493 180.013 194.358 184.108 198.495C189.935 204.388 195.174 210.167 200.361 216.73C200.933 217.457 201.527 218.22 201.696 219.134C202.031 220.919 201.25 222.894 200.2 224.381C196.329 229.86 191.823 234.868 186.84 239.361C184.361 241.597 181.766 243.709 179.092 245.712C176.467 247.676 174.112 250.536 171.159 247.687C162.793 239.609 155.542 230.416 150.305 219.938C146.526 212.361 145.708 205.347 145.977 197.05C146.066 194.36 145.718 191.687 145.598 188.988C145.441 185.467 144.907 181.955 144.015 178.547C143.588 176.916 136.784 167.29 135.158 166.614C141.711 168.261 148.82 171.36 153.584 174.074Z" fill="#5F4DAA"/>
<path d="M203.317 219.262C203.234 218.505 202.845 217.812 202.466 217.148C201.531 215.519 200.659 213.762 199.302 212.431C197.44 210.602 195.835 211.703 194.391 213.49C189.774 219.206 186.88 221.385 181.94 226.4C176.955 231.461 171.067 237.594 166.021 242.417C165.614 242.807 165.374 243.414 165.482 243.966C165.572 244.434 165.952 244.781 166.313 245.095C168.038 246.593 170.586 249.823 173.003 250.105C175.304 250.373 177.262 248.085 178.923 246.839C181.687 244.771 184.368 242.591 186.932 240.28C192.873 234.919 198.502 229.008 202.451 222.042C202.912 221.231 203.369 220.356 203.328 219.425L203.317 219.262Z" fill="white"/>
<path d="M92.186 134.283C91.544 133.974 90.6862 134.203 90.206 134.666C89.7255 135.131 89.5589 135.773 89.5246 136.391C89.4511 137.674 89.8874 138.979 90.7425 140.051C91.169 140.584 91.7203 141.073 92.4261 141.308L92.5609 141.31L92.5977 141.221C92.659 139.699 92.7301 138.176 92.7939 136.654L92.186 134.283Z" fill="#FBC3B8"/>
<path d="M127.344 133.281C127.334 144.687 122.769 154.462 110.092 154.462C97.1358 154.462 91.9456 145.751 91.6027 134.348C91.2619 122.944 98.9837 113.177 108.857 113.166C120.262 113.153 127.361 117.535 127.344 133.281Z" fill="#FBC3B8"/>
<path d="M131.6 118.483C131.172 117.944 130.694 117.472 130.282 117.146C129.143 116.248 128.135 115.537 126.589 114.984C127.211 114.864 127.9 115.052 128.525 115.099C129.397 115.167 130.307 115.228 131.113 114.888C134.24 113.577 132.889 109.919 130.613 108.582C129.226 107.77 127.594 107.507 125.996 107.338C124.785 107.209 123.572 107.124 122.359 107.085C122.722 106.731 123.237 106.587 123.688 106.354C124.141 106.122 124.58 105.704 124.545 105.195C124.457 103.96 122.609 103.719 121.668 103.586C120.252 103.384 118.806 103.495 117.395 103.679C114.863 104.012 112.368 104.632 109.881 105.132C107.453 105.619 105.09 106.431 102.87 107.525C101.564 108.168 100.307 108.912 99.116 109.747C98.5499 110.143 98.0695 110.558 97.5941 111.03C97.1065 111.511 97.1213 111.304 96.3984 111.317C95.7881 111.328 95.19 111.522 94.6461 111.785C92.4774 112.835 90.4901 115.145 89.517 117.335C88.3972 119.856 88.0125 122.083 88.0247 124.829C88.0321 127.191 88.9216 131.186 90.4313 134.37C91.0953 134.085 91.9528 134.333 92.4602 134.723C92.644 134.864 93.8743 136.315 93.8251 136.467C93.8619 136.354 93.9036 136.245 93.933 136.13C95.2783 130.945 96.0039 129.151 99.2752 126.948C102.623 124.697 106.588 123.364 110.648 123.135C115.344 122.872 118.622 123.677 122.499 124.951C125.178 125.828 126.499 127.509 127.199 129.547C128.135 128.107 128.486 126.9 128.495 125.989C128.503 125.43 128.415 123.87 127.665 122.957C127.491 122.746 128.995 123.203 129.275 123.24C129.892 123.32 130.512 123.342 131.118 123.177C133.806 122.439 132.921 120.138 131.6 118.483Z" fill="#333A5B"/>
<path d="M278.64 230.549C279.429 230.332 280.219 230.118 281.006 229.905C285.949 228.563 290.89 227.224 295.832 225.882C298.398 225.186 300.251 224.157 301.706 221.863C303.228 219.471 304.398 216.854 305.164 214.125C305.331 213.531 305.481 212.914 305.377 212.305C303.794 206.803 294.918 217.35 292.939 217.448C288.729 217.655 284.162 217.877 279.964 217.379C277.022 217.028 275.269 214.63 276.767 211.824C277.818 209.852 287.282 206.05 281.741 203.753C280.81 203.369 279.779 203.319 278.775 203.369C271.38 203.747 265.058 207.851 261.093 213.94C260.284 215.182 259.36 216.411 258.179 217.322C256.42 218.681 256.246 218.483 257.844 220.299C260.476 223.285 263.301 226.099 266.298 228.718C267.492 229.764 268.509 231.043 269.83 231.941C271.287 232.935 272.77 232.365 274.29 231.854C275.719 231.373 277.176 230.951 278.64 230.549Z" fill="#FBC3B8"/>
<path d="M126.626 247.665C127.631 246.732 129.153 246.199 130.66 246.252C132.169 246.304 133.63 246.941 134.536 247.939L135.409 249.174C136.117 254.827 136.438 260.514 136.078 266.19C134.313 265.583 133.051 264.289 131.895 263.028C129.456 260.373 127.104 257.591 125.834 254.424C124.933 252.171 124.719 249.438 126.626 247.665ZM121.705 254.229C123.558 258.992 126.991 263.178 130.549 267.175C132.238 269.07 134.078 271.018 136.654 271.932C137.18 263.389 136.715 254.833 135.678 246.323L134.406 244.468C133.086 242.965 130.949 242.006 128.748 241.928C126.548 241.85 124.325 242.652 122.859 244.055C120.073 246.721 120.387 250.838 121.705 254.229Z" fill="#8069BB"/>
<path d="M133.286 237.761L173.512 238.146C172.549 248.568 170.92 273.809 170.368 275.781C169.92 277.384 168.682 277.963 167.116 278.524C163.137 279.95 158.939 280.764 154.717 280.936C151.739 281.053 148.754 281.199 145.777 281.025C142.936 280.857 138.19 280.899 136.626 277.982C136.078 276.964 135.908 275.788 135.764 274.637C134.948 268.124 134.624 261.525 134.2 254.975C133.83 249.249 133.286 237.761 133.286 237.761Z" fill="#8069BB"/>
<path d="M171.486 236.406C172.514 236.798 173.686 237.409 173.497 238.277C173.284 239.242 171.765 239.373 171.012 239.536C169.846 239.793 168.667 240.004 167.483 240.171C164.256 240.619 161.012 240.58 157.769 240.78C154.466 240.987 151.155 241.172 147.845 241.145C145.527 241.126 143.203 241.008 140.902 240.713C138.887 240.452 136.557 240.26 134.72 239.351C133.754 238.871 132.472 237.792 133.938 237.107C135.115 236.557 136.564 236.309 137.824 235.995C140.503 235.336 143.23 234.893 145.981 234.66C150.168 234.308 154.398 234.292 158.59 234.551C161.001 234.701 163.416 234.81 165.82 235.056C167.339 235.21 168.85 235.502 170.294 235.998C170.559 236.087 171.008 236.222 171.486 236.406Z" fill="#9582C9"/>
<path d="M169.905 236.652C170.838 236.898 171.901 237.285 171.717 237.855C171.517 238.49 170.13 238.588 169.442 238.703C168.373 238.883 167.297 239.033 166.214 239.153C163.269 239.481 160.308 239.488 157.35 239.651C154.336 239.821 151.315 239.977 148.296 239.995C146.182 240.003 144.066 239.953 141.971 239.782C140.13 239.634 138.011 239.531 136.344 238.957C135.467 238.653 134.314 237.961 135.653 237.5C136.734 237.128 138.06 236.948 139.209 236.732C141.66 236.273 144.152 235.954 146.661 235.773C150.484 235.499 154.344 235.445 158.163 235.573C160.362 235.645 162.563 235.693 164.751 235.828C166.136 235.912 167.511 236.086 168.824 236.397C169.063 236.454 169.471 236.537 169.905 236.652Z" fill="#8069BB"/>
<path d="M152.364 237.487C158.055 237.569 163.899 237.761 169.535 238.687L169.442 238.703C168.374 238.883 167.298 239.033 166.215 239.153C163.269 239.481 160.309 239.488 157.351 239.653C154.337 239.82 151.315 239.977 148.296 239.992C146.182 240.005 144.067 239.953 141.972 239.781C140.131 239.633 138.011 239.531 136.345 238.957C136.149 238.89 135.941 238.798 135.747 238.698C141.244 237.835 146.792 237.408 152.364 237.487Z" fill="#333A5B"/>
<path d="M145.945 198.299C144.87 200.88 144.092 203.54 143.959 206.437C143.772 210.48 145.549 213.994 147.534 217.45C149.311 220.538 151.364 222.102 152.238 225.558C152.896 228.148 152.567 231.454 151.519 234.385C151.988 234.377 152.457 234.375 152.928 234.375C154.001 234.375 155.072 234.394 156.143 234.431C156.577 234.133 156.942 233.857 157.216 233.635C157.538 233.376 157.853 233.107 158.157 232.826C155.212 228.761 152.57 224.471 150.306 219.938C146.718 212.744 145.799 206.056 145.945 198.299Z" fill="#A767B1"/>
<path d="M148.095 193.765C147.322 195.27 146.581 196.77 145.945 198.299C145.799 206.057 146.718 212.744 150.306 219.938C152.57 224.471 155.212 228.761 158.158 232.826C159.905 231.21 161.336 229.227 161.978 226.948C162.917 223.633 161.963 221.367 160.272 219.421C158.939 217.883 157.145 216.548 155.46 215.056C149.674 209.943 148.507 201.474 148.095 193.765Z" fill="#A767B1"/>
<path d="M152.928 234.375C152.457 234.375 151.988 234.377 151.519 234.386C151.376 234.781 151.22 235.173 151.052 235.553C152.126 235.523 153.202 235.508 154.278 235.508C154.325 235.508 154.373 235.508 154.422 235.508C155.062 235.147 155.648 234.773 156.143 234.431C155.072 234.394 154.001 234.375 152.928 234.375Z" fill="#C688C0"/>
<path d="M154.278 235.508C153.202 235.508 152.126 235.523 151.052 235.554C150.804 236.115 150.529 236.654 150.229 237.165C151.675 236.885 153.158 236.221 154.422 235.508C154.374 235.508 154.325 235.508 154.278 235.508Z" fill="#BA7ABA"/>
<path d="M127.444 277.079C131.556 275.501 135.661 273.785 139.369 271.375C141.643 269.896 144.644 267.899 144.015 264.742C143.833 263.837 143.284 262.976 142.505 262.471C142.123 262.225 140.871 261.88 139.851 261.999C141.353 260.69 142 258.911 141.177 257.38C140.376 255.886 138.207 254.916 136.55 255.294C137.761 254.281 138.969 252.034 138.075 250.533C137.195 249.055 135.205 248.905 133.521 249.272C129.973 250.051 125.05 251.251 122.325 252.65C123.548 251.53 124.116 250.497 125.621 249.079C127.143 247.641 128.929 245.621 128.78 243.533C128.687 242.232 127.875 241.501 126.667 241.01C124.42 240.099 121.989 241.645 120.058 243.113C116.385 245.905 113.096 249.15 109.705 252.262C106.722 254.998 103.598 258.226 99.6426 259.457C99.8875 261.164 100.593 262.63 101.076 264.237C101.62 266.038 101.848 267.936 102.414 269.746C103.485 273.176 105.051 276.579 107.629 279.141C107.857 279.37 108.097 279.594 108.391 279.718C108.724 279.857 109.092 279.857 109.452 279.855C112.557 279.837 116.235 279.385 119.281 278.861C122.217 278.354 124.67 278.145 127.444 277.079Z" fill="#FBC3B8"/>
<path d="M138.739 261.953C136.129 262.891 132.838 264.072 130.23 265.011C129.99 265.098 129.865 265.364 129.951 265.603C130.038 265.844 130.304 265.968 130.544 265.883C133.151 264.944 136.442 263.763 139.052 262.826C139.292 262.739 139.417 262.473 139.33 262.234C139.243 261.993 138.979 261.869 138.739 261.956V261.953Z" fill="#F9ABA4"/>
<path d="M135.698 254.955C133.84 256.051 130.236 257.802 127.953 258.75C127.717 258.848 127.604 259.118 127.703 259.355C127.801 259.59 128.072 259.703 128.308 259.605C130.643 258.635 134.242 256.886 136.168 255.753C136.388 255.623 136.461 255.34 136.331 255.12C136.201 254.901 135.918 254.827 135.698 254.955Z" fill="#F9ABA4"/>
<path d="M354.096 300.669C354.516 318.137 376.997 314.684 391.829 314.79C400.206 314.847 430.712 314.636 436.424 314.551C441.792 314.473 447.277 314.647 452.679 314.355C453.367 307.474 453.268 300.043 453.188 294.33C453.173 293.366 453.17 292.492 453.161 291.7C453.161 291.344 453.155 291.007 453.152 290.68C453.131 289.16 453.075 287.986 452.893 287.066C452.336 286.985 451.702 286.922 450.988 286.862C436.644 285.683 393.39 285.422 385.189 285.831C374.532 286.368 353.726 285.646 354.096 300.669Z" fill="white"/>
<path d="M382.274 282.322C392.38 282.318 450.141 282.903 454.217 283.479C454.579 283.53 454.947 283.586 455.274 283.747C456.07 284.138 455.98 285.461 455.965 286.235C455.959 286.483 455.932 286.761 455.741 286.927C455.561 287.083 455.298 287.083 455.052 287.072C452.558 286.961 450.063 286.868 447.566 286.763C442.79 286.563 438.01 286.365 433.231 286.172C430.273 286.052 427.311 285.883 424.35 285.837C419.127 285.754 413.902 285.7 408.679 285.672C404.203 285.646 399.726 285.639 395.246 285.667C392.386 285.685 389.518 285.696 386.658 285.815C386.538 285.819 386.421 285.826 386.302 285.831C375.267 286.367 353.716 285.646 354.099 300.669C354.536 318.138 377.821 314.684 393.18 314.791C395.923 314.791 398.663 314.799 401.397 314.793C405.793 314.784 410.186 314.762 414.582 314.741C419.079 314.714 423.577 314.686 428.078 314.654C431.333 314.63 434.594 314.606 437.852 314.569C441.161 314.532 450.989 314.362 452.674 314.356C453.471 314.354 454.549 314.323 455.337 314.449C456.103 314.573 455.941 315.554 455.974 316.141C456.028 317.061 455.986 317.542 455.157 317.725C453.621 318.064 446.712 318.06 445.071 318.07C441.804 318.092 438.532 318.042 435.262 318.099C429.356 318.205 423.43 318.084 417.516 318.057C408.856 318.022 398.223 317.846 389.56 317.601C370.754 317.07 350.11 320.326 350.113 300.809C350.116 283.68 365.388 282.333 382.274 282.322Z" fill="#F78FB7"/>
<path d="M374.404 289.889C374.404 290.17 374.637 290.396 374.913 290.396H374.919C400.889 290.128 427.195 290.568 453.161 291.701C453.161 291.344 453.155 291.007 453.149 290.681C427.18 289.548 400.877 289.108 374.91 289.374C374.628 289.378 374.398 289.609 374.404 289.889Z" fill="#E8F0F3"/>
<path d="M441.698 293.626C425.526 293.43 409.353 293.332 393.181 293.332C381.852 293.332 370.526 293.38 359.198 293.475C358.915 293.477 358.691 293.71 358.691 293.991C358.694 294.274 358.927 294.5 359.206 294.498C370.529 294.4 381.855 294.352 393.181 294.352C409.35 294.352 425.517 294.45 441.687 294.645C441.966 294.65 442.199 294.424 442.205 294.143C442.208 293.86 441.981 293.63 441.701 293.626H441.698Z" fill="#E8F0F3"/>
<path d="M449.462 301.248C428.953 301.039 407.537 300.743 386.132 300.743C375.946 300.743 365.762 300.811 355.682 300.987C355.399 300.992 355.174 301.224 355.18 301.507C355.186 301.788 355.419 302.013 355.7 302.007C365.771 301.831 375.952 301.766 386.132 301.766C407.528 301.766 428.944 302.062 449.453 302.268C449.734 302.272 449.964 302.046 449.964 301.764C449.967 301.481 449.743 301.25 449.462 301.248Z" fill="#E8F0F3"/>
<path d="M424.953 306.574C410.764 306.574 395.314 306.555 380.742 306.555C373.454 306.555 366.387 306.559 359.806 306.574C359.522 306.574 359.295 306.803 359.295 307.085C359.295 307.368 359.525 307.594 359.806 307.594C366.387 307.579 373.454 307.575 380.742 307.575C395.314 307.575 410.764 307.594 424.953 307.594C425.237 307.594 425.464 307.366 425.464 307.085C425.464 306.803 425.237 306.574 424.953 306.574Z" fill="#E8F0F3"/>
<path d="M451.039 311.468C449.354 311.474 445.215 311.476 439.742 311.476C424.627 311.476 399.328 311.455 387.349 311.419C387.067 311.419 386.839 311.648 386.836 311.929C386.836 312.211 387.064 312.44 387.346 312.442C399.328 312.475 424.627 312.499 439.742 312.499C445.215 312.499 449.351 312.496 451.042 312.49C451.326 312.488 451.552 312.259 451.549 311.976C451.549 311.696 451.321 311.468 451.039 311.47V311.468Z" fill="#E8F0F3"/>
<path d="M388.601 297.727C388.245 302.879 388.297 308.407 387.956 313.15C386.596 311.622 384.442 310.093 383.084 308.564C381.167 309.756 379.358 311.119 377.678 312.633C377.552 307.707 377.423 302.783 377.294 297.859C380.685 298.009 388.601 297.727 388.601 297.727Z" fill="#F0387E"/>
<path d="M456.802 265.37C456.382 282.838 433.901 279.383 419.072 279.489C410.693 279.546 380.191 279.337 374.48 279.25C369.108 279.172 363.625 279.346 358.226 279.054C357.536 272.173 357.632 264.742 357.713 259.029C357.728 258.065 357.734 257.191 357.737 256.401C357.737 256.043 357.743 255.706 357.749 255.379C357.77 253.859 357.827 252.685 358.01 251.765C358.565 251.684 359.198 251.621 359.915 251.56C374.258 250.381 417.509 250.121 425.714 250.529C436.368 251.067 457.174 250.347 456.802 265.37Z" fill="white"/>
<path d="M428.63 247.022C426.246 246.88 423.853 246.865 421.466 246.837C417.63 246.793 413.794 246.789 409.958 246.804C405.327 246.819 400.698 246.865 396.067 246.935C391.29 247.007 386.517 247.102 381.743 247.239C377.48 247.359 373.215 247.507 368.953 247.724C364.844 247.935 360.761 248.114 356.683 248.69C356.32 248.74 355.954 248.796 355.627 248.957C354.828 249.349 354.922 250.162 354.934 250.934C354.943 251.184 354.97 251.461 355.158 251.626C355.336 251.785 355.606 251.782 355.848 251.772C358.343 251.663 360.839 251.567 363.335 251.463C368.112 251.263 372.891 251.065 377.671 250.871C380.63 250.751 383.591 250.582 386.55 250.536C391.771 250.456 396.999 250.399 402.22 250.371C406.697 250.347 411.174 250.339 415.655 250.369C418.516 250.386 421.381 250.395 424.243 250.515C424.364 250.519 424.482 250.525 424.6 250.53C435.633 251.067 457.187 250.347 456.803 265.371C456.364 282.838 433.079 279.383 417.721 279.489C414.98 279.489 412.242 279.5 409.505 279.494C405.109 279.483 400.714 279.461 396.321 279.439C391.823 279.413 387.321 279.385 382.826 279.352C379.568 279.331 376.307 279.305 373.049 279.268C369.742 279.233 359.914 279.063 358.222 279.054C357.427 279.052 356.35 279.022 355.566 279.148C354.798 279.272 354.958 280.253 354.925 280.842C354.874 281.762 354.913 282.24 355.745 282.423C357.279 282.763 364.188 282.758 365.828 282.769C369.098 282.791 372.368 282.741 375.638 282.797C381.546 282.904 387.469 282.782 393.384 282.756C402.045 282.721 410.712 282.665 419.379 282.551C431.376 282.399 460.415 286.116 460.787 265.508C461.098 248.381 439.65 247.687 428.63 247.022Z" fill="#F0387E"/>
<path d="M436.494 254.587C436.494 254.868 436.264 255.094 435.985 255.094H435.98C410.011 254.829 383.706 255.268 357.737 256.401C357.737 256.042 357.743 255.705 357.749 255.379C383.717 254.246 410.022 253.807 435.988 254.072C436.273 254.076 436.5 254.307 436.494 254.587Z" fill="#E8F0F3"/>
<path d="M369.215 259.344C385.381 259.151 401.547 259.053 417.71 259.053C429.037 259.053 440.367 259.101 451.694 259.196C451.974 259.198 452.205 258.972 452.205 258.692C452.208 258.409 451.985 258.179 451.7 258.176C440.37 258.079 429.043 258.031 417.71 258.031C401.541 258.031 385.372 258.129 369.203 258.324C368.918 258.327 368.692 258.559 368.698 258.842C368.701 259.122 368.933 259.349 369.215 259.344Z" fill="#E8F0F3"/>
<path d="M361.447 266.967C381.949 266.76 403.361 266.464 424.755 266.464C434.937 266.464 445.119 266.53 455.197 266.708C455.478 266.712 455.711 266.488 455.717 266.205C455.72 265.923 455.496 265.692 455.215 265.686C445.128 265.509 434.943 265.445 424.755 265.445C403.352 265.445 381.937 265.74 361.438 265.947C361.157 265.949 360.927 266.179 360.933 266.462C360.936 266.745 361.166 266.971 361.447 266.967Z" fill="#E8F0F3"/>
<path d="M385.948 272.295C400.135 272.295 415.581 272.273 430.154 272.273C437.441 272.273 444.508 272.278 451.092 272.295C451.374 272.295 451.602 272.069 451.602 271.787C451.605 271.504 451.377 271.276 451.095 271.273C444.508 271.258 437.441 271.254 430.154 271.254C415.581 271.254 400.135 271.273 385.948 271.273C385.666 271.273 385.438 271.504 385.438 271.784C385.438 272.067 385.666 272.295 385.948 272.295Z" fill="#E8F0F3"/>
<path d="M359.857 277.188C361.592 277.195 365.898 277.197 371.58 277.197C386.737 277.197 411.678 277.175 423.552 277.138C423.835 277.138 424.064 276.91 424.061 276.627C424.061 276.346 423.835 276.118 423.552 276.118C411.678 276.153 386.737 276.177 371.58 276.177C365.898 276.177 361.592 276.172 359.862 276.166C359.58 276.166 359.35 276.394 359.348 276.675C359.348 276.958 359.577 277.188 359.857 277.188Z" fill="#E8F0F3"/>
<path d="M422.302 262.426C422.656 267.58 422.605 273.109 422.944 277.85C424.301 276.321 426.458 274.792 427.817 273.263C429.731 274.457 431.542 275.821 433.219 277.332C433.35 272.408 433.476 267.484 433.607 262.558C430.22 262.711 422.302 262.426 422.302 262.426Z" fill="#8069BB"/>
</svg>
