<svg width="164" height="170" viewBox="0 0 164 170" fill="none" xmlns="http://www.w3.org/2000/svg">
<path d="M30.2483 144.505L18.7324 10.625H145.269L133.737 144.484L81.9237 159.375L30.2483 144.505Z" fill="#E44F26"/>
<path d="M82 147.996L123.871 135.963L133.721 21.5742H82V147.996Z" fill="#F1662A"/>
<path d="M82 71.2243H61.0387L59.5935 54.4102H82V37.9893H42.2812L42.6605 42.3986L46.5504 87.6452H82V71.2243Z" fill="#EBEBEB"/>
<path d="M81.9993 113.868L81.9275 113.89L64.2872 108.954L63.1597 95.8589H47.2568L49.476 121.635L81.9275 130.975L81.9993 130.953V113.868Z" fill="#EBEBEB"/>
<path d="M81.9443 71.2246V87.6456H101.45L99.6154 108.943L81.9443 113.884V130.969L114.422 121.635L114.657 118.862L118.378 75.634L118.768 71.2246H81.9443Z" fill="white"/>
<path d="M81.9443 37.9893V54.4102H120.208L120.525 50.7233L121.248 42.3986L121.627 37.9893H81.9443Z" fill="white"/>
</svg>
