<svg width="40" height="40" viewBox="0 0 40 40" fill="none" xmlns="http://www.w3.org/2000/svg">
<path fill-rule="evenodd" clip-rule="evenodd" d="M12.442 1.77699C14.397 1.68699 15.0203 1.66699 20.0003 1.66699C24.9803 1.66699 25.6037 1.68866 27.557 1.77699C29.5103 1.86533 30.8437 2.17699 32.0103 2.62866C33.232 3.09033 34.3403 3.81199 35.257 4.74532C36.1903 5.66032 36.9103 6.76699 37.3703 7.99032C37.8237 9.15699 38.1337 10.4903 38.2237 12.4403C38.3137 14.3987 38.3337 15.022 38.3337 20.0003C38.3337 24.9803 38.312 25.6037 38.2237 27.5587C38.1353 29.5086 37.8237 30.842 37.3703 32.0086C36.9103 33.2321 36.1891 34.3406 35.257 35.257C34.3403 36.1903 33.232 36.9103 32.0103 37.3703C30.8437 37.8237 29.5103 38.1336 27.5603 38.2236C25.6037 38.3136 24.9803 38.3336 20.0003 38.3336C15.0203 38.3336 14.397 38.312 12.442 38.2236C10.492 38.1353 9.15866 37.8237 7.99199 37.3703C6.76853 36.9103 5.66003 36.1891 4.74366 35.257C3.81096 34.3414 3.08918 33.2335 2.62866 32.0103C2.17699 30.8436 1.86699 29.5103 1.77699 27.5603C1.68699 25.602 1.66699 24.9787 1.66699 20.0003C1.66699 15.0203 1.68866 14.397 1.77699 12.4437C1.86533 10.4903 2.17699 9.15699 2.62866 7.99032C3.08986 6.76713 3.81219 5.65918 4.74533 4.74366C5.66039 3.81116 6.76778 3.0894 7.99033 2.62866C9.15699 2.17699 10.4903 1.86699 12.4403 1.77699H12.442ZM27.4087 5.07699C25.4753 4.98866 24.8953 4.97032 20.0003 4.97032C15.1053 4.97032 14.5253 4.98866 12.592 5.07699C10.8037 5.15866 9.83366 5.45699 9.18699 5.70866C8.33199 6.04199 7.72033 6.43699 7.07866 7.07866C6.4704 7.67041 6.00229 8.39079 5.70866 9.18699C5.45699 9.83366 5.15866 10.8037 5.07699 12.592C4.98866 14.5253 4.97033 15.1053 4.97033 20.0003C4.97033 24.8953 4.98866 25.4753 5.07699 27.4086C5.15866 29.197 5.45699 30.167 5.70866 30.8137C6.00199 31.6087 6.47033 32.3303 7.07866 32.922C7.67033 33.5303 8.39199 33.9986 9.18699 34.292C9.83366 34.5437 10.8037 34.842 12.592 34.9236C14.5253 35.012 15.1037 35.0303 20.0003 35.0303C24.897 35.0303 25.4753 35.012 27.4087 34.9236C29.197 34.842 30.167 34.5437 30.8137 34.292C31.6687 33.9586 32.2803 33.5637 32.922 32.922C33.5303 32.3303 33.9987 31.6087 34.292 30.8137C34.5437 30.167 34.842 29.197 34.9237 27.4086C35.012 25.4753 35.0303 24.8953 35.0303 20.0003C35.0303 15.1053 35.012 14.5253 34.9237 12.592C34.842 10.8037 34.5437 9.83366 34.292 9.18699C33.9587 8.33199 33.5637 7.72032 32.922 7.07866C32.3302 6.47044 31.6098 6.00234 30.8137 5.70866C30.167 5.45699 29.197 5.15866 27.4087 5.07699ZM17.6587 25.652C18.9664 26.1964 20.4226 26.2698 21.7785 25.8599C23.1345 25.4499 24.306 24.5818 25.093 23.4041C25.88 22.2263 26.2338 20.8118 26.0937 19.4022C25.9537 17.9926 25.3287 16.6753 24.3253 15.6753C23.6857 15.0361 22.9123 14.5467 22.0609 14.2422C21.2094 13.9378 20.301 13.8259 19.4012 13.9147C18.5013 14.0034 17.6322 14.2906 16.8567 14.7555C16.0811 15.2205 15.4182 15.8516 14.9158 16.6034C14.4134 17.3553 14.084 18.2091 13.9512 19.1036C13.8184 19.998 13.8856 20.9108 14.1479 21.7762C14.4102 22.6416 14.8611 23.438 15.4682 24.1082C16.0753 24.7784 16.8234 25.3056 17.6587 25.652ZM13.337 13.337C14.212 12.4619 15.2509 11.7678 16.3942 11.2943C17.5375 10.8207 18.7628 10.5769 20.0003 10.5769C21.2378 10.5769 22.4632 10.8207 23.6065 11.2943C24.7498 11.7678 25.7886 12.4619 26.6637 13.337C27.5387 14.212 28.2328 15.2509 28.7064 16.3942C29.18 17.5374 29.4237 18.7628 29.4237 20.0003C29.4237 21.2378 29.18 22.4632 28.7064 23.6065C28.2328 24.7498 27.5387 25.7886 26.6637 26.6637C24.8964 28.4309 22.4996 29.4237 20.0003 29.4237C17.5011 29.4237 15.1042 28.4309 13.337 26.6637C11.5698 24.8964 10.577 22.4996 10.577 20.0003C10.577 17.5011 11.5698 15.1042 13.337 13.337ZM31.5137 11.9803C31.7305 11.7758 31.9041 11.5298 32.0242 11.2569C32.1442 10.9841 32.2083 10.6899 32.2127 10.3919C32.217 10.0938 32.1615 9.7979 32.0495 9.52167C31.9374 9.24544 31.771 8.99451 31.5603 8.78372C31.3495 8.57294 31.0985 8.40659 30.8223 8.29452C30.5461 8.18245 30.2502 8.12695 29.9521 8.1313C29.654 8.13564 29.3599 8.19975 29.087 8.31982C28.8142 8.43989 28.5682 8.61348 28.3637 8.83032C27.9658 9.25204 27.748 9.81219 27.7565 10.3919C27.7649 10.9716 27.999 11.5251 28.4089 11.9351C28.8189 12.345 29.3724 12.579 29.9521 12.5875C30.5318 12.5959 31.0919 12.3781 31.5137 11.9803Z" fill="#FFC700"/>
</svg>
