<svg width="164" height="170" viewBox="0 0 164 170" fill="none" xmlns="http://www.w3.org/2000/svg">
<path d="M0 0H164V170H0V0Z" fill="#F7DF1E"/>
<path d="M43.1217 142.064L55.6716 134.191C58.0931 138.641 60.2956 142.406 65.5788 142.406C70.643 142.406 73.8365 140.353 73.8365 132.365V78.0464H89.248V132.591C89.248 149.138 79.891 156.669 66.2393 156.669C53.9105 156.669 46.7541 150.051 43.1211 142.063" fill="black"/>
<path d="M97.6188 140.352L110.167 132.821C113.471 138.413 117.765 142.521 125.36 142.521C131.746 142.521 135.818 139.211 135.818 134.647C135.818 129.169 131.635 127.229 124.589 124.035L120.737 122.322C109.618 117.416 102.242 111.254 102.242 98.2447C102.242 86.2623 111.049 77.1328 124.81 77.1328C134.608 77.1328 141.653 80.6709 146.717 89.914L134.717 97.9027C132.074 92.9959 129.213 91.0562 124.809 91.0562C120.296 91.0562 117.433 94.0232 117.433 97.9027C117.433 102.695 120.296 104.636 126.9 107.603L130.753 109.315C143.854 115.135 151.229 121.069 151.229 134.419C151.229 148.798 140.331 156.672 125.69 156.672C111.379 156.672 102.131 149.597 97.6182 140.353" fill="black"/>
</svg>
