<svg width="164" height="151" viewBox="0 0 164 151" fill="none" xmlns="http://www.w3.org/2000/svg">
<path d="M134.841 48.8921C133.095 48.273 131.335 47.6995 129.562 47.1721C129.86 45.9138 130.134 44.6707 130.377 43.4495C134.374 23.395 131.761 7.23861 122.838 1.91917C114.282 -3.18039 100.29 2.13706 86.1596 14.8509C84.7669 16.1061 83.4052 17.3975 82.0756 18.7239C81.1855 17.8419 80.2797 16.977 79.3587 16.1297C64.5487 2.53576 49.7042 -3.19363 40.7905 2.14104C32.2427 7.25649 29.7115 22.4446 33.3093 41.4507C33.6672 43.3331 34.0714 45.2057 34.5214 47.0668C32.4201 47.6841 30.3925 48.3411 28.4521 49.0404C11.0886 55.299 0 65.1067 0 75.28C0 85.7871 11.9041 96.326 29.9889 102.716C31.4551 103.232 32.9335 103.71 34.4227 104.15C33.939 106.155 33.5097 108.173 33.135 110.202C29.7051 128.878 32.3836 143.708 40.9084 148.791C49.7131 154.04 64.4911 148.645 78.8802 135.641C80.047 134.584 81.188 133.497 82.3024 132.381C83.7422 133.817 85.2205 135.211 86.7355 136.562C100.674 148.961 114.44 153.968 122.956 148.871C131.753 143.607 134.612 127.676 130.9 108.295C130.608 106.776 130.28 105.265 129.917 103.763C130.955 103.445 131.973 103.118 132.966 102.778C151.767 96.3385 164 85.9275 164 75.28C164 65.0696 152.553 55.1957 134.841 48.8921ZM130.763 95.9034C129.866 96.2101 128.946 96.5061 128.008 96.7942C125.933 90.0012 123.132 82.7783 119.704 75.3151C122.975 68.03 125.668 60.8992 127.686 54.1506C129.363 54.6526 130.991 55.1818 132.561 55.7401C147.737 61.1416 156.994 69.1268 156.994 75.28C156.994 81.8339 146.997 90.3423 130.763 95.9034ZM124.028 109.701C125.669 118.271 125.903 126.02 124.816 132.078C123.839 137.521 121.875 141.15 119.446 142.604C114.278 145.696 103.225 141.676 91.3051 131.072C89.8959 129.816 88.5208 128.519 87.1814 127.184C91.8028 121.96 96.4211 115.886 100.929 109.14C108.857 108.413 116.347 107.223 123.14 105.6C123.474 106.995 123.771 108.364 124.028 109.701ZM55.9112 142.069C50.8618 143.912 46.8399 143.965 44.4088 142.516C39.2357 139.432 37.0851 127.525 40.0186 111.553C40.3673 109.666 40.7665 107.789 41.2159 105.924C47.9335 107.461 55.3692 108.566 63.3162 109.232C67.8544 115.833 72.6059 121.9 77.3945 127.213C76.3769 128.231 75.3351 129.223 74.2702 130.188C67.9069 135.938 61.5308 140.017 55.9112 142.069ZM32.2555 95.863C24.2585 93.0371 17.6543 89.3647 13.1277 85.3573C9.05972 81.7565 7.00652 78.1808 7.00652 75.28C7.00652 69.1062 15.9093 61.2317 30.7583 55.8798C32.5604 55.2308 34.4464 54.6182 36.4035 54.0433C38.4561 60.9443 41.148 68.1598 44.3966 75.4562C41.1057 82.8605 38.3754 90.1913 36.3029 97.1737C34.9436 96.7711 33.594 96.3341 32.2555 95.863ZM40.1851 40.0593C37.1031 23.7758 39.1499 11.4924 44.3011 8.40952C49.7875 5.12594 61.9196 9.8076 74.7071 21.5459C75.541 22.313 76.3613 23.0958 77.1678 23.8936C72.4028 29.1833 67.6948 35.2054 63.197 41.7673C55.4839 42.5064 48.1007 43.6932 41.3126 45.2833C40.8944 43.5523 40.5185 41.8106 40.1851 40.0599V40.0593ZM110.927 58.1183C109.324 55.2552 107.661 52.4282 105.94 49.6391C111.173 50.3233 116.186 51.2313 120.894 52.3412C119.481 57.0249 117.719 61.9211 115.646 66.9412C114.13 63.9681 112.557 61.0265 110.927 58.1183ZM82.0788 29.07C85.3101 32.6894 88.5465 36.73 91.7298 41.1143C85.2723 40.799 78.804 40.7977 72.3464 41.1103C75.5329 36.7664 78.7969 32.7311 82.0788 29.07ZM53.045 58.168C51.436 61.0528 49.8923 63.976 48.4152 66.9353C46.3755 61.9331 44.6298 57.0143 43.2044 52.2644C47.8835 51.1823 52.8733 50.2975 58.0727 49.6259C56.3323 52.432 54.656 55.2799 53.045 58.1673V58.168ZM58.2219 101.449C52.8503 100.829 47.7855 99.9904 43.1077 98.9373C44.5555 94.1027 46.3396 89.0793 48.4236 83.9698C49.9065 86.9313 51.4566 89.8563 53.0726 92.7424C54.7344 95.7094 56.4551 98.6155 58.2219 101.449ZM82.2723 122C78.9513 118.296 75.6392 114.199 72.4047 109.792C75.5451 109.919 78.7463 109.984 82 109.984C85.3428 109.984 88.6471 109.907 91.8996 109.757C88.7061 114.243 85.4818 118.347 82.2723 122ZM115.712 83.7088C117.904 88.8746 119.751 93.8715 121.218 98.6234C116.464 99.7453 111.33 100.649 105.92 101.32C107.654 98.4787 109.332 95.6025 110.955 92.6927C112.605 89.7349 114.191 86.7396 115.712 83.7088ZM104.886 89.074C102.402 93.5354 99.7782 97.912 97.0188 102.197C92.0204 102.563 87.0109 102.745 82 102.742C76.8961 102.742 71.9319 102.578 67.1516 102.257C64.3202 97.9822 61.6462 93.5979 59.1355 89.1137H59.1361C56.6371 84.6533 54.3029 80.0964 52.1385 75.4529C54.2974 70.8082 56.6245 66.2492 59.115 61.7854L59.1143 61.786C61.6038 57.3211 64.2564 52.9555 67.0664 48.6987C71.9435 48.3172 76.9448 48.1185 81.9994 48.1185H82C87.0776 48.1185 92.0854 48.3192 96.9612 48.7033C99.7428 52.9538 102.378 57.3043 104.863 61.747C107.362 66.2009 109.72 70.7377 111.933 75.3502C109.743 80.0098 107.392 84.5873 104.886 89.074ZM119.339 8.19362C124.83 11.4679 126.966 24.6718 123.516 41.9872C123.295 43.0918 123.048 44.2171 122.779 45.3582C115.974 43.7342 108.586 42.5269 100.85 41.7766C96.3442 35.1425 91.6747 29.1111 86.9873 23.8897C88.2158 22.6655 89.4735 21.473 90.7593 20.3134C102.867 9.42083 114.183 5.11998 119.339 8.19362ZM82 60.1403C90.0879 60.1403 96.6447 66.9187 96.6447 75.28C96.6447 83.6413 90.0879 90.4197 82 90.4197C73.9121 90.4197 67.3553 83.6413 67.3553 75.28C67.3553 66.9187 73.9121 60.1403 82 60.1403Z" fill="#00D8FF"/>
</svg>
