<svg width="171" height="128" viewBox="0 0 171 128" fill="none" xmlns="http://www.w3.org/2000/svg">
<path d="M147.141 73.676C141.192 73.7067 136.021 75.1367 131.692 77.2507C130.103 74.1107 128.514 71.3133 128.234 69.2613C127.922 66.868 127.549 65.4067 127.922 62.5467C128.296 59.6867 129.978 55.614 129.947 55.3033C129.916 54.9927 129.573 53.5313 126.147 53.5007C122.721 53.4693 119.762 54.1533 119.419 55.0547C119.076 55.956 118.423 58.008 117.986 60.1213C117.395 63.2307 111.134 74.328 107.553 80.1413C106.4 77.8727 105.403 75.8827 105.185 74.2973C104.873 71.904 104.499 70.4427 104.873 67.5827C105.248 64.7227 106.929 60.6507 106.898 60.3393C106.867 60.0287 106.524 58.5673 103.098 58.5367C99.6713 58.5053 96.7122 59.1893 96.3702 60.0907C96.0276 60.9927 95.6535 63.106 94.9374 65.158C94.2207 67.21 85.9045 85.738 83.7243 90.5247C82.8432 92.4621 81.9189 94.3797 80.9522 96.276C80.9522 96.276 80.9208 96.3693 80.8273 96.5247C80.5236 97.1193 80.2123 97.71 79.8935 98.2967V98.3273C79.4259 99.1673 78.9276 99.944 78.6784 99.944C78.4914 99.944 78.1487 97.706 78.7405 94.6593C79.9863 88.2247 82.9454 78.2147 82.9147 77.8727C82.9147 77.686 83.4751 75.9453 80.9836 75.0433C78.5535 74.142 77.6818 75.634 77.4634 75.634C77.2456 75.634 77.0893 76.1627 77.0893 76.1627C77.0893 76.1627 79.7999 64.9093 71.9192 64.9093C66.9983 64.9093 60.2077 70.2873 56.8439 75.1367C53.0198 77.2136 49.199 79.2965 45.3815 81.3853C43.5446 82.4113 41.6442 83.4373 39.8688 84.4007C39.7439 84.2767 39.6196 84.1207 39.4947 83.9967C29.9635 73.8313 12.3344 66.65 13.0819 53.0033C13.3624 48.0293 15.0751 34.9727 46.9392 19.1187C73.165 6.21734 94.0344 9.792 97.6474 17.7193C102.817 29.0353 86.4656 50.05 59.3668 53.096C49.0259 54.2467 43.606 50.2673 42.236 48.7753C40.8033 47.2207 40.5848 47.1273 40.0551 47.4387C39.1834 47.9053 39.7439 49.304 40.0551 50.112C40.8654 52.2253 44.1979 55.956 49.8355 57.7907C54.8192 59.4067 66.9355 60.3087 81.6061 54.6507C98.0208 48.3087 110.854 30.6827 107.085 15.9167C103.316 0.932669 78.3979 -4.01 54.8192 4.352C40.8033 9.32667 25.603 17.16 14.6703 27.3567C1.68166 39.48 -0.374349 50.0187 0.466623 54.4333C3.48851 70.1007 25.136 80.2973 33.7949 87.8513C33.3587 88.1 32.9533 88.318 32.6113 88.5047C28.2815 90.6493 11.7733 99.26 7.66198 108.369C2.99021 118.689 8.41011 126.089 11.9918 127.083C23.1114 130.161 34.5424 124.627 40.6783 115.487C46.8143 106.348 46.0668 94.4727 43.2327 89.0327C43.2013 88.9707 43.1705 88.908 43.1077 88.846C44.2293 88.1933 45.3815 87.5093 46.503 86.8567C48.5643 85.6405 50.6517 84.4691 52.7639 83.3433C51.7045 86.2347 50.9257 89.6853 50.5523 94.6593C50.0847 100.504 52.4827 108.089 55.6288 111.073C57.0309 112.379 58.6814 112.41 59.7408 112.41C63.416 112.41 65.0672 109.363 66.9048 105.757C69.1472 101.343 71.1718 96.214 71.1718 96.214C71.1718 96.214 68.6489 110.079 75.5016 110.079C77.9931 110.079 80.516 106.845 81.6375 105.198V105.229C81.6375 105.229 81.6996 105.135 81.8246 104.918C82.0737 104.514 82.2293 104.265 82.2293 104.265V104.203C83.2259 102.462 85.469 98.514 88.8015 91.9547C93.0999 83.4993 97.2426 72.93 97.2426 72.93C97.2426 72.93 97.6167 75.51 98.8932 79.8C99.6413 82.318 101.198 85.0847 102.444 87.758C101.447 89.1573 100.824 89.934 100.824 89.934L100.856 89.9653C100.045 91.022 99.1737 92.172 98.2078 93.292C94.8125 97.3327 90.764 101.965 90.2029 103.301C89.5483 104.887 89.7046 106.037 90.951 106.97C91.8541 107.654 93.4733 107.747 95.1245 107.654C98.1771 107.436 100.326 106.69 101.385 106.224C103.036 105.633 104.967 104.731 106.773 103.395C110.106 100.939 112.13 97.426 111.944 92.7947C111.85 90.2453 111.009 87.696 109.981 85.302C110.293 84.8673 110.573 84.432 110.885 83.9967C116.149 76.318 120.229 67.8933 120.229 67.8933C120.229 67.8933 120.603 70.4733 121.88 74.764C122.503 76.94 123.78 79.3027 124.901 81.6027C119.949 85.6133 116.896 90.276 115.806 93.3227C113.844 98.9807 115.37 101.529 118.267 102.12C119.575 102.4 121.444 101.778 122.814 101.187C124.559 100.628 126.615 99.6647 128.577 98.234C131.91 95.7787 135.118 92.3587 134.931 87.7273C134.837 85.6133 134.277 83.53 133.498 81.5093C137.703 79.7693 143.123 78.8053 150.037 79.6133C164.864 81.354 167.791 90.5867 167.23 94.4733C166.67 98.3587 163.555 100.473 162.528 101.125C161.499 101.779 161.157 101.996 161.251 102.462C161.375 103.146 161.873 103.115 162.746 102.991C163.961 102.773 170.533 99.8507 170.813 92.7007C171.28 83.5613 162.559 73.5827 147.141 73.676ZM32.7669 112.161C27.8453 117.508 20.9933 119.529 18.0342 117.819C14.8573 115.985 16.1031 108.089 22.1455 102.431C25.8207 98.9807 30.5553 95.778 33.7014 93.82C34.4175 93.3847 35.4769 92.7633 36.754 91.986C36.9718 91.8613 37.0967 91.7993 37.0967 91.7993L37.8442 91.3327C40.0551 99.4153 37.9377 106.535 32.7669 112.161ZM68.5867 87.8513C66.8734 92.0173 63.2918 102.68 61.1115 102.089C59.2425 101.592 58.0896 93.5093 60.7374 85.52C62.0767 81.5093 64.9109 76.722 66.5621 74.8573C69.2407 71.8727 72.1998 70.8773 72.9159 72.0907C73.8196 73.676 69.6455 85.24 68.5867 87.8513ZM98.1457 101.965C97.429 102.338 96.7443 102.587 96.4324 102.4C96.2146 102.275 96.7443 101.778 96.7443 101.778C96.7443 101.778 100.451 97.7993 101.914 95.996C102.756 94.9393 103.752 93.696 104.811 92.2967V92.7007C104.811 97.4573 100.201 100.659 98.145 101.965H98.1457ZM120.945 96.7733C120.416 96.4 120.509 95.1567 122.285 91.2707C122.97 89.7473 124.589 87.1987 127.362 84.7427C127.673 85.7373 127.892 86.7013 127.86 87.6027C127.829 93.6027 123.531 95.8407 120.945 96.7733Z" fill="#CD6799"/>
</svg>
