<svg width="159" height="179" viewBox="0 0 159 179" fill="none" xmlns="http://www.w3.org/2000/svg">
<g clip-path="url(#clip0)">
<path d="M145.431 0.00186599C145.631 -0.0118673 145.83 0.0346847 146.006 0.136226C146.182 0.237766 146.328 0.390219 146.427 0.576239C146.526 0.762258 146.575 0.974376 146.567 1.18846C146.559 1.40254 146.496 1.60999 146.383 1.78721L105.206 61.7136C105.057 61.894 104.874 62.0384 104.669 62.1373C104.463 62.2362 104.241 62.2873 104.016 62.2873C103.791 62.2873 103.569 62.2362 103.364 62.1373C103.158 62.0384 102.975 61.894 102.826 61.7136L88.3068 44.3732C88.1317 44.1786 87.918 44.0286 87.6815 43.9342C87.4451 43.8399 87.1919 43.8036 86.9406 43.8281C86.6893 43.8527 86.4464 43.9373 86.2297 44.0759C86.0131 44.2145 85.8282 44.4034 85.6889 44.6288L76.8817 56.6138C76.745 56.945 76.695 57.3099 76.737 57.6693C76.779 58.0287 76.9115 58.3691 77.1202 58.654L103.302 87.7245C103.451 87.905 103.634 88.0495 103.839 88.1485C104.045 88.2474 104.267 88.2986 104.492 88.2986C104.717 88.2986 104.94 88.2474 105.145 88.1485C105.35 88.0495 105.533 87.905 105.682 87.7245L157.094 25.7586C157.242 25.5875 157.434 25.4675 157.647 25.4138C157.859 25.3602 158.081 25.3754 158.285 25.4574C158.489 25.5394 158.666 25.6846 158.793 25.8745C158.92 26.0643 158.991 26.2904 158.998 26.5238V177.233C159.008 177.403 158.983 177.574 158.927 177.733C158.871 177.893 158.783 178.038 158.671 178.158C158.558 178.279 158.423 178.372 158.274 178.433C158.125 178.493 157.966 178.519 157.807 178.508H1.19277C1.03392 178.519 0.874794 178.493 0.72594 178.433C0.577086 178.372 0.441898 178.279 0.329328 178.158C0.216759 178.038 0.129377 177.893 0.0729703 177.733C0.0165633 177.574 -0.0075819 177.403 0.00213387 177.233V1.27749C-0.00767365 1.10724 0.0164034 0.936697 0.0727694 0.777169C0.129135 0.61764 0.216503 0.472768 0.329083 0.352153C0.441662 0.231537 0.576883 0.137933 0.725783 0.0775435C0.874682 0.0171541 1.03386 -0.0086416 1.19277 0.00186599H145.431ZM104.968 101.75C101.462 101.684 97.9788 102.38 94.7298 103.795C91.4808 105.21 88.533 107.316 86.0642 109.984C83.5953 112.653 81.6566 115.83 80.3648 119.323C79.0731 122.817 78.4551 126.554 78.5481 130.311C78.5481 147.906 90.4489 159.127 105.92 159.127C113.082 159.318 120.105 156.989 125.914 152.497C126.175 152.243 126.342 151.898 126.386 151.524C126.429 151.149 126.346 150.771 126.152 150.456L121.868 143.571C121.635 143.285 121.312 143.101 120.961 143.054C120.61 143.007 120.254 143.101 119.963 143.316C116.24 146.041 111.857 147.547 107.349 147.652C99.0175 147.652 93.7811 142.041 92.8296 135.411C92.838 135.279 92.8908 135.154 92.9783 135.061C93.0657 134.967 93.1819 134.91 93.3053 134.901H129.246C129.617 134.874 129.966 134.704 130.228 134.423C130.491 134.142 130.649 133.768 130.674 133.371V131.84C130.674 113.99 120.201 101.75 104.968 101.75V101.75ZM69.5038 92.0598C62.2743 85.7286 53.1266 82.4618 43.7973 82.8795C27.6122 82.8795 17.6157 93.0799 17.6157 105.32C17.6157 133.116 57.1266 124.191 57.1266 137.196C57.1266 141.276 53.3181 145.357 45.2258 145.357C37.54 145.424 30.1247 142.319 24.5186 136.686C24.3531 136.52 24.1565 136.394 23.9419 136.316C23.7273 136.239 23.4997 136.211 23.2743 136.235C23.0489 136.259 22.8309 136.335 22.6349 136.456C22.4389 136.578 22.2695 136.743 22.1379 136.941L15.95 146.121C15.7556 146.436 15.6728 146.814 15.7166 147.189C15.7603 147.563 15.9277 147.908 16.1885 148.161C22.6149 154.536 31.6599 158.872 44.2743 158.872C62.8394 158.872 71.8844 148.671 72.3602 135.411C72.3602 107.87 32.8493 115.776 32.8493 104.045C32.8493 99.7102 36.42 96.6499 42.6079 96.6499C49.4298 96.5497 56.0738 98.9825 61.4115 103.535C61.5669 103.671 61.7461 103.773 61.9386 103.834C62.1311 103.895 62.3331 103.914 62.5327 103.891C62.7323 103.867 62.9254 103.801 63.1007 103.696C63.276 103.591 63.4301 103.45 63.5537 103.28L69.7423 94.3548C69.8695 94.1884 69.9644 93.9964 70.0214 93.7902C70.0784 93.5839 70.0964 93.3675 70.0742 93.1537C70.0521 92.9398 69.9902 92.7329 69.8924 92.5451C69.7945 92.3572 69.6626 92.1922 69.5044 92.0598H69.5038ZM105.206 112.97C111.68 112.582 117.269 117.779 117.821 124.701C117.813 124.833 117.76 124.958 117.672 125.051C117.585 125.145 117.469 125.202 117.345 125.211H93.0668C92.9434 125.202 92.8272 125.145 92.7398 125.051C92.6523 124.958 92.5995 124.833 92.5911 124.701C93.3873 117.915 98.8237 112.86 105.206 112.97Z" fill="#2CB134"/>
</g>
<defs>
<clipPath id="clip0">
<rect width="159" height="179" fill="white"/>
</clipPath>
</defs>
</svg>
