<svg width="170" height="102" viewBox="0 0 170 102" fill="none" xmlns="http://www.w3.org/2000/svg">
<path d="M85 0C62.3336 0 48.1664 11.3041 42.5 33.9117C51 22.6076 60.9164 18.3686 72.25 21.1948C78.716 22.8069 83.3379 27.4864 88.4538 32.6652C96.7878 41.1027 106.433 50.8675 127.5 50.8675C150.166 50.8675 164.334 39.5634 170 16.9558C161.5 28.26 151.584 32.4989 140.25 29.6727C133.784 28.0606 129.162 23.3812 124.046 18.2024C115.712 9.76484 106.067 0 85 0ZM42.5 50.8675C19.8336 50.8675 5.66645 62.1716 0 84.7792C8.5 73.4751 18.4164 69.2361 29.75 72.0623C36.216 73.6745 40.8378 78.3539 45.9538 83.5327C54.2878 91.9702 63.9326 101.735 85 101.735C107.666 101.735 121.834 90.4309 127.5 67.8234C119 79.1275 109.084 83.3665 97.75 80.5403C91.284 78.9281 86.6621 74.2487 81.5462 69.0699C73.2122 60.6324 63.5674 50.8675 42.5 50.8675Z" fill="url(#paint0_linear)"/>
<defs>
<linearGradient id="paint0_linear" x1="-4.7226" y1="32.5552" x2="141.909" y2="117.321" gradientUnits="userSpaceOnUse">
<stop stop-color="#2298BD"/>
<stop offset="1" stop-color="#0ED7B5"/>
</linearGradient>
</defs>
</svg>
